<?xml version="1.0" encoding="utf-8"?>
<!-- Generator: Adobe Illustrator 23.0.5, SVG Export Plug-In . SVG Version: 6.00 Build 0)  -->
<svg version="1.1" id="Layer_1" xmlns="http://www.w3.org/2000/svg" xmlns:xlink="http://www.w3.org/1999/xlink" x="0px" y="0px"
	 viewBox="0 0 20 19.2" style="enable-background:new 0 0 20 19.2;" xml:space="preserve">
<style type="text/css">
	.st0{fill-rule:evenodd;clip-rule:evenodd;fill:#959595;}
	.st1{fill:#959595;}
</style>
<g>
	<path class="st0" d="M16.7,0.1C16.4-0.1,16,0,15.8,0.3L14,3.6C12.7,3,11.4,2.7,10,2.7c-3.6,0-7.1,2.2-9.9,6.4l0,0l0,0
		C0,9.3,0,9.4,0.1,9.6c2.1,3.1,4.5,5.1,7.1,6l-1.5,2.6c-0.2,0.3-0.1,0.7,0.2,0.9l0.3,0.2c0.3,0.2,0.7,0.1,0.8-0.2L17.2,1.1
		c0.2-0.3,0.1-0.7-0.2-0.9L16.7,0.1z M13.2,5.1c-1-0.5-2.1-0.7-3.1-0.7c-2.6,0-5.3,1.4-7.7,4.5C2,9.1,2,9.6,2.3,9.9
		C4.1,12.1,6.1,13.5,8,14l1-1.8c-1.2-0.4-2.2-1.4-2.2-2.9C6.9,7.5,8.3,6,10,6c0.8,0,1.5,0.3,2.1,0.8L13.2,5.1z M11.3,8.4
		C11,8,10.6,7.7,10,7.7c-0.9,0-1.6,0.7-1.6,1.7c0,0.6,0.6,1.3,1.5,1.4L11.3,8.4z"/>
	<path class="st1" d="M10.5,16c3.4-0.2,6.7-2.4,9.4-6.3C20,9.5,20,9.5,20,9.3c0-0.1,0-0.2-0.1-0.3c-1-1.5-2.1-2.8-3.3-3.8l-0.8,1.4
		c0.7,0.6,1.3,1.3,2,2.1c0.2,0.3,0.2,0.7,0,1c-1.9,2.4-4.1,3.8-6.2,4.3L10.5,16z"/>
</g>
</svg>
