<?xml version="1.0" encoding="utf-8"?>
<!-- Generator: Adobe Illustrator 23.0.5, SVG Export Plug-In . SVG Version: 6.00 Build 0)  -->
<svg version="1.1" id="Layer_1" xmlns="http://www.w3.org/2000/svg" xmlns:xlink="http://www.w3.org/1999/xlink" x="0px" y="0px"
	 viewBox="0 0 20 23.9" style="enable-background:new 0 0 20 23.9;" xml:space="preserve">
<g id="info">
</g>
<g id="icons">
	<g id="delete">
		<path d="M16.9,8H3.1C2.5,8,2,8.5,2.1,9.1l1.6,13.1c0.1,1,1,1.7,2,1.7h8.5c1,0,1.9-0.7,2-1.7l1.6-13.1C17.9,8.5,17.5,8,16.9,8z"/>
		<path d="M18,2h-5l0,0c0-1.1-0.9-2-2-2H9C7.9,0,7,0.9,7,2l0,0H2C0.9,2,0,2.9,0,4v1c0,0.6,0.4,1,1,1h18c0.6,0,1-0.4,1-1V4
			C20,2.9,19.1,2,18,2z"/>
	</g>
</g>
</svg>
