<?xml version="1.0" encoding="utf-8"?>
<!-- Generator: Adobe Illustrator 23.0.5, SVG Export Plug-In . SVG Version: 6.00 Build 0)  -->
<svg version="1.1" id="Layer_1" xmlns="http://www.w3.org/2000/svg" xmlns:xlink="http://www.w3.org/1999/xlink" x="0px" y="0px"
	 viewBox="0 0 20 13.1" style="enable-background:new 0 0 20 13.1;" xml:space="preserve">
<style type="text/css">
	.st0{fill-rule:evenodd;clip-rule:evenodd;fill:#959595;}
</style>
<g>
	<path class="st0" d="M12.9,7.6c0.2-0.4,0.3-0.9,0.3-1.1c0-1.8-1.4-3.3-3.1-3.3c-1.7,0-3.1,1.5-3.1,3.3c0,1.8,1.6,3,3.1,3
		c1,0,1.9-0.5,2.5-1.3C12.7,8.1,12.8,7.9,12.9,7.6z M10,7.9c0.4,0,0.7-0.2,1-0.4c0.3-0.3,0.5-0.7,0.5-1c0-0.9-0.6-1.6-1.5-1.6
		c-0.9,0-1.6,0.7-1.6,1.6C8.5,7.2,9.2,7.9,10,7.9z"/>
	<path class="st0" d="M0.1,6.7C0.1,6.7,0.1,6.8,0.1,6.7C0,6.6,0,6.5,0.1,6.3c0,0,0,0,0,0C2.9,2.2,6.4,0,10,0c3.6,0,7.1,2.2,9.9,6.3
		C20,6.4,20,6.4,20,6.5c0,0.1,0,0.2-0.1,0.3c-2.8,4.1-6.3,6.3-9.9,6.3C6.4,13.1,2.9,10.9,0.1,6.7z M2.3,6C2,6.3,2,6.7,2.3,7
		c2.4,3,5.1,4.4,7.8,4.4c2.6,0,5.3-1.4,7.8-4.4c0.2-0.3,0.2-0.7,0-1c-2.4-3-5.1-4.4-7.8-4.4C7.4,1.6,4.7,3,2.3,6z"/>
</g>
</svg>
