<?xml version="1.0" encoding="utf-8"?>
<!-- Generator: Adobe Illustrator 23.0.5, SVG Export Plug-In . SVG Version: 6.00 Build 0)  -->
<svg version="1.1" id="Layer_4" xmlns="http://www.w3.org/2000/svg" xmlns:xlink="http://www.w3.org/1999/xlink" x="0px" y="0px"
	 viewBox="0 0 20 16.2" style="enable-background:new 0 0 20 16.2;" xml:space="preserve">
<style type="text/css">
	.st0{fill:#F5951C;}
</style>
<g>
	<path class="st0" d="M19,6.7h-0.6c-0.3,0-0.8,0-1.3,0c-1.9,0-4.6,0-5.3,0c-1,0-1.6,0.3-1.6,0.3l-5.5,4.1l-0.1,0.1
		c-0.2,0.2-0.3,0.4-0.3,0.7c0,0.5,0.4,1,1,1c0.2,0,0.4-0.1,0.6-0.2l0,0l0.3-0.2c0.7-0.5,3.7-2.4,4-2.6c0.3-0.2,0.7-0.1,1,0.3
		c0.4,0.7-0.6,1.3-0.6,1.3l-3.2,2.1c-0.6,0.4-1.2,0.5-1.5,0.5H1.4c-0.1,0-0.1,0-0.2,0H1l0,0c-0.3,0-0.6,0.2-0.8,0.5l0,0
		C0.1,14.8,0,15,0,15.2c0,0.5,0.4,1,1,1l0,0h0.1h1.5h5.8c0.2,0,1.1-0.1,2-0.6l4.9-3.2c0,0,0.5-0.3,1.3-0.3c0.4,0,1.1,0,1.8,0l0,0
		l0,0c0,0,0.1,0,0.2,0H19c0.5,0,1-0.4,1-1V7.7C20,7.1,19.6,6.7,19,6.7z"/>
	<path class="st0" d="M0.3,2.6c0,0,0,0.1,0,0.2l0,0l0,0c0.2,0.7,1,3.2,4.3,5.5l0,0L5,8.5l0.2-0.1l0,0c3.5-2.3,4.3-5,4.4-5.6l0,0
		c0-0.1,0-0.1,0-0.1l0,0c0-0.2,0-0.4,0-0.6l0,0C9.4,0.8,8.5,0,7.3,0S5.1,1,5,2.2l0,0C4.9,1,3.9,0,2.7,0S0.5,0.9,0.4,2.1l0,0
		C0.3,2.3,0.3,2.5,0.3,2.6L0.3,2.6z"/>
</g>
</svg>
