<?xml version="1.0" encoding="utf-8"?>
<!-- Generator: Adobe Illustrator 23.0.5, SVG Export Plug-In . SVG Version: 6.00 Build 0)  -->
<svg version="1.1" id="Layer_1" xmlns="http://www.w3.org/2000/svg" xmlns:xlink="http://www.w3.org/1999/xlink" x="0px" y="0px"
	 viewBox="0 0 20 19.9" style="enable-background:new 0 0 20 19.9;" xml:space="preserve">
<style type="text/css">
	.st0{fill:#231F20;}
</style>
<title></title>
<g>
	<path class="st0" d="M9.2,10.4l9.2,9.2c0.4,0.3,1,0.3,1.3-0.1c0.3-0.4,0.3-0.9,0-1.2l-8.5-8.5l8.2-8.2c0.4-0.4,0.4-1,0-1.3l0,0
		c-0.4-0.4-1-0.4-1.3,0c0,0,0,0,0,0l-9,9C8.9,9.6,8.9,10.1,9.2,10.4z"/>
	<path class="st0" d="M0.2,10.4l9.2,9.2c0.4,0.3,1,0.3,1.3-0.1c0.3-0.4,0.3-0.9,0-1.2L2.3,9.8l8.2-8.2c0.4-0.4,0.4-1,0-1.3l0,0
		c-0.4-0.4-1-0.4-1.3,0l-9,9C-0.1,9.6-0.1,10.1,0.2,10.4z"/>
</g>
</svg>
