<?xml version="1.0" encoding="utf-8"?>
<!-- Generator: Adobe Illustrator 23.0.5, SVG Export Plug-In . SVG Version: 6.00 Build 0)  -->
<svg version="1.1" id="Layer_1" xmlns="http://www.w3.org/2000/svg" xmlns:xlink="http://www.w3.org/1999/xlink" x="0px" y="0px"
	 viewBox="0 0 20 20.7" style="enable-background:new 0 0 20 20.7;" xml:space="preserve">
<style type="text/css">
	.st0{fill:#C9C9C9;}
</style>
<g>
	<path class="st0" d="M12.6,11.8v-0.9c0-3.2-2.6-5.8-5.8-5.8c-4.2,0-6.9,2.3-6.9,6c0,2.3,0.9,4,1.6,4.9c0.6,0.8,1.2,1.3,1.4,1.5v2.8
		c0,0.2,0.2,0.3,0.3,0.3h6.6c0.2,0,0.3-0.2,0.3-0.3v-1.5l2.2-0.5c0.2,0,0.3-0.2,0.3-0.3v-2.6l1.2-0.8c0.2-0.1,0.2-0.3,0.1-0.5
		L12.6,11.8z M12.2,14.9C12.1,15,12,15.1,12,15.2v2.5l-2.2,0.5c-0.2,0-0.3,0.2-0.3,0.3V20H3.7v-2.6c0-0.1-0.1-0.2-0.2-0.3
		c0,0-0.7-0.5-1.4-1.4c-0.9-1.3-1.4-2.8-1.4-4.5c0-3.3,2.3-5.3,6.2-5.3c2.8,0,5.1,2.3,5.1,5.1v0.9c0,0.1,0,0.1,0,0.2l1.2,2.2
		L12.2,14.9z"/>
	<path class="st0" d="M4.5,9c-0.9,0-1.6,0.7-1.6,1.6c0,0.9,0.7,1.6,1.6,1.6c0.7,0,1.4-0.5,1.5-1.2h1.8v2h0.7v-2h1.2v2h0.7v-2.7H6
		C5.9,9.5,5.2,9,4.5,9z M4.5,11.5c-0.5,0-0.9-0.4-0.9-0.9c0-0.5,0.4-0.9,0.9-0.9s0.9,0.4,0.9,0.9C5.4,11.1,5,11.5,4.5,11.5z"/>
	<rect x="16.6" y="0.1" class="st0" width="0.7" height="2.3"/>
	<rect x="18" y="1.3" transform="matrix(0.4277 -0.9039 0.9039 0.4277 9.4593 18.2325)" class="st0" width="2.3" height="0.7"/>
	<rect x="14.3" y="0.5" transform="matrix(0.9039 -0.4277 0.4277 0.9039 0.7048 6.4295)" class="st0" width="0.7" height="2.3"/>
	<path class="st0" d="M16.9,3.3c-1.7,0-3.1,1.4-3.1,3.1c0,0.3,0.1,0.6,0.2,0.9c0.2,0.5,0.9,1.4,1.2,1.8l0,0.9h0v1.9h3.5V9.9h0l0-0.9
		c0.3-0.3,1-1.3,1.2-1.8C19.9,7,20,6.7,20,6.4C20,4.7,18.6,3.3,16.9,3.3z M17.9,11.2h-2.1V9.9h2.1V11.2L17.9,11.2z M19.2,7.1
		C19,7.4,18.4,8.2,18,8.7l-0.1,0.1l0,0.4h-2.1l0-0.4l-0.1-0.1c-0.4-0.4-1-1.3-1.1-1.6c-0.1-0.2-0.1-0.4-0.1-0.7
		c0-1.3,1.1-2.4,2.4-2.4c1.3,0,2.4,1.1,2.4,2.4C19.3,6.6,19.2,6.9,19.2,7.1z"/>
</g>
</svg>
