<?xml version="1.0" encoding="utf-8"?>
<!-- Generator: Adobe Illustrator 23.0.5, SVG Export Plug-In . SVG Version: 6.00 Build 0)  -->
<svg version="1.1" id="Layer_1" xmlns="http://www.w3.org/2000/svg" xmlns:xlink="http://www.w3.org/1999/xlink" x="0px" y="0px"
	 viewBox="0 0 20 21.9" style="enable-background:new 0 0 20 21.9;" xml:space="preserve">
<style type="text/css">
	.st0{fill:#C9C9C9;}
</style>
<g>
	<path class="st0" d="M5.5,0.7c3,0,5.5,2.5,5.5,5.5c0,3-2.5,5.5-5.5,5.5c-3,0-5.5-2.5-5.5-5.5S2.5,0.7,5.5,0.7L5.5,0.7z M12,16
		c-0.6-0.4,0-1.4,0.6-0.9L14,16l2.2-2.9c0.4-0.6,1.4,0.1,0.9,0.7l-2.6,3.4l0,0c-0.2,0.2-0.5,0.3-0.8,0.1L12,16L12,16z M3.9,8.2
		C3.5,7.6,4.4,7,4.8,7.6C5.2,8.2,6.3,8,6.3,7.3c0-1.1-2.7-0.2-2.7-2.4c0-0.8,0.6-1.5,1.3-1.7V3.1c0-0.7,1.1-0.7,1.1,0v0.2
		c0.4,0.1,0.8,0.4,1.1,0.8c0.4,0.6-0.5,1.2-1,0.6C5.8,4.1,4.7,4.3,4.7,5c0,0.5,0.3,0.5,0.9,0.6C6.5,5.8,7.4,6,7.4,7.3
		c0,0.8-0.6,1.5-1.3,1.7v0.2c0,0.7-1.1,0.7-1.1,0V9C4.5,8.9,4.1,8.6,3.9,8.2L3.9,8.2z M6,18.3c-0.4-0.6,0.5-1.3,0.9-0.7l1.3,1.8
		c0.2,0.3,0.2,0.6-0.1,0.8l-1.9,1.5c-0.6,0.5-1.3-0.4-0.7-0.9l0.8-0.6c-3.4-0.7-5.9-3.7-5.9-7.2c0-0.7,1.1-0.7,1.1,0
		c0,3,2.1,5.5,5,6.1L6,18.3L6,18.3z M14.5,9.5c3,0,5.5,2.5,5.5,5.5s-2.5,5.5-5.5,5.5S9,18.1,9,15C9,12,11.5,9.5,14.5,9.5L14.5,9.5z
		 M14.5,10.7c-2.4,0-4.4,2-4.4,4.4c0,2.4,2,4.4,4.4,4.4s4.4-2,4.4-4.4C18.9,12.6,16.9,10.7,14.5,10.7L14.5,10.7z M14,3.5
		c0.4,0.6-0.5,1.3-0.9,0.7l-1.3-1.8c-0.2-0.3-0.2-0.6,0.1-0.8l1.9-1.5C14.3-0.3,15,0.6,14.5,1l-0.8,0.6c3.4,0.7,5.9,3.7,5.9,7.2
		c0,0.7-1.1,0.7-1.1,0c0-3-2.1-5.5-5-6.1L14,3.5L14,3.5z M5.5,1.8c-2.4,0-4.4,2-4.4,4.4c0,2.4,2,4.4,4.4,4.4s4.4-2,4.4-4.4
		C9.8,3.7,7.9,1.8,5.5,1.8L5.5,1.8z"/>
</g>
</svg>
