<?xml version="1.0" encoding="utf-8"?>
<!-- Generator: Adobe Illustrator 23.0.5, SVG Export Plug-In . SVG Version: 6.00 Build 0)  -->
<svg version="1.1" id="Layer_1" xmlns="http://www.w3.org/2000/svg" xmlns:xlink="http://www.w3.org/1999/xlink" x="0px" y="0px"
	 viewBox="0 0 20 27.2" style="enable-background:new 0 0 20 27.2;" xml:space="preserve">
<style type="text/css">
	.st0{fill:#C9C9C9;}
</style>
<g>
	<path class="st0" d="M20,0.4c0-0.2-0.2-0.4-0.4-0.4H0.4C0.2,0.1,0,0.2,0,0.4l0,26.4c0,0.1,0,0.2,0.1,0.3c0.1,0.1,0.2,0.1,0.3,0.1
		h13c0.8,0,1.5-0.3,1.9-1c0,0,0,0,0,0l4.2-4.3c0,0,0,0,0,0c0.3-0.3,0.5-0.8,0.5-1.2L20,0.4z M15.7,24.7v-2.1c0.8,0.1,1.5,0.1,2.1,0
		L15.7,24.7z M18.9,21.4C18.9,21.4,18.9,21.4,18.9,21.4L18.9,21.4c-0.1,0.1-0.2,0.1-0.2,0.2c-0.9,0.4-2,0.5-3.3,0.3
		c-0.1,0-0.2,0-0.3,0.1S15,22.1,15,22.2v2.6c0,0.4-0.1,0.7-0.3,1c-0.3,0.4-0.8,0.7-1.3,0.7H0.7l0-25.7h18.5l0,19.9
		C19.3,21,19.2,21.2,18.9,21.4z"/>
	<path class="st0" d="M9.2,14.1l0.5,0.2c0.1,0,0.2,0.1,0.3,0.1c0.1,0,0.2,0,0.3-0.1l0.5-0.3c2.6-1.3,4.2-3.9,4.2-6.8V3.8
		c0-0.2-0.1-0.4-0.2-0.5c-0.1-0.1-0.3-0.2-0.5-0.2c-2.2,0.2-3.8-0.8-3.8-0.8c-0.2-0.2-0.5-0.2-0.8,0c-0.1,0-1.6,1-3.8,0.8
		c-0.2,0-0.4,0-0.5,0.2C5.1,3.4,5,3.6,5,3.8v3.5C5,10.2,6.6,12.8,9.2,14.1z M5.7,3.9C8.1,4.1,9.8,3.1,10,3c0,0,1.8,1.2,4.3,0.9v3.5
		c0,2.6-1.4,5-3.8,6.1L10,13.7l-0.5-0.2c-2.3-1.2-3.8-3.5-3.8-6.1L5.7,3.9z"/>
	<path class="st0" d="M10,10.5c1.6,0,2.9-1.3,2.9-2.9S11.6,4.7,10,4.7S7.1,6,7.1,7.6S8.4,10.5,10,10.5z M10,5.4c1.2,0,2.2,1,2.2,2.2
		s-1,2.2-2.2,2.2s-2.2-1-2.2-2.2S8.8,5.4,10,5.4z"/>
	<path class="st0" d="M9.1,8.8c0.1,0.1,0.2,0.1,0.3,0.1c0,0,0,0,0,0c0.1,0,0.2,0,0.3-0.1l1.8-2c0.1-0.1,0.1-0.4,0-0.5
		c-0.1-0.1-0.4-0.1-0.5,0L9.4,8L9.1,7.6C9,7.5,8.8,7.5,8.6,7.6C8.5,7.7,8.4,7.9,8.6,8.1L9.1,8.8z"/>
	<path class="st0" d="M16.4,15.8H2.9c-0.2,0-0.4,0.2-0.4,0.4c0,0.2,0.2,0.4,0.4,0.4h13.5c0.2,0,0.4-0.2,0.4-0.4S16.6,15.8,16.4,15.8
		z"/>
	<path class="st0" d="M16.4,18H2.9c-0.2,0-0.4,0.2-0.4,0.4s0.2,0.4,0.4,0.4h13.5c0.2,0,0.4-0.2,0.4-0.4C16.7,18.2,16.6,18,16.4,18z"
		/>
	<path class="st0" d="M10,20.1H2.9c-0.2,0-0.4,0.2-0.4,0.4c0,0.2,0.2,0.4,0.4,0.4H10c0.2,0,0.4-0.2,0.4-0.4
		C10.4,20.3,10.2,20.1,10,20.1z"/>
</g>
</svg>
