<?xml version="1.0" encoding="utf-8"?>
<!-- Generator: Adobe Illustrator 23.0.5, SVG Export Plug-In . SVG Version: 6.00 Build 0)  -->
<svg version="1.1" id="Layer_1" xmlns="http://www.w3.org/2000/svg" xmlns:xlink="http://www.w3.org/1999/xlink" x="0px" y="0px"
	 viewBox="0 0 20 17" style="enable-background:new 0 0 20 17;" xml:space="preserve">
<style type="text/css">
	.st0{fill:#C9C9C9;}
</style>
<g>
	<path class="st0" d="M18.2,3.3h-1V2.5c0-0.2-0.2-0.4-0.4-0.4h-1V0.4c0-0.2-0.2-0.4-0.4-0.4h-11C4.3,0,4.2,0.2,4.2,0.4v1.8h-1
		C3,2.2,2.8,2.3,2.8,2.5v0.7h-1c-0.5,0-0.9,0.2-1.3,0.5S0,4.6,0,5.1v7.3c0,1,0.8,1.8,1.8,1.8h1v0.7H1.1c-0.2,0-0.4,0.2-0.4,0.4
		s0.2,0.4,0.4,0.4h2.1H7H13h3.8h2.1c0.2,0,0.4-0.2,0.4-0.4s-0.2-0.4-0.4-0.4h-1.7v-0.7h1c1,0,1.8-0.8,1.8-1.8V5.1
		C20,4.1,19.2,3.3,18.2,3.3z M16.5,3.3h-3V2.9h3V3.3z M4.9,0.8h10.2v1.4H13c-0.2,0-0.4,0.2-0.4,0.4v0.7H7.3V2.5
		c0-0.2-0.2-0.4-0.4-0.4H4.9V0.8z M3.5,2.9h3v0.4h-3V2.9z M3.5,14.8v-0.7h3v0.7H3.5L3.5,14.8z M12.7,14.2v0.7H7.3v-0.7H12.7z
		 M16.5,14.8h-3v-0.7h3V14.8z M19.2,12.3c0,0.6-0.5,1.1-1.1,1.1h-1.3H13H7H3.2H1.8c-0.6,0-1.1-0.5-1.1-1.1V5.1
		c0-0.3,0.1-0.5,0.3-0.7S1.5,4,1.8,4h1.3H7h6.1h3.8h1.3c0.6,0,1.1,0.5,1.1,1.1L19.2,12.3L19.2,12.3z"/>
	<path class="st0" d="M10,4.2c-2.5,0-4.5,2-4.5,4.5s2,4.5,4.5,4.5s4.5-2,4.5-4.5S12.5,4.2,10,4.2z M10,12.5c-2.1,0-3.7-1.7-3.7-3.7
		C6.3,6.6,7.9,5,10,5s3.7,1.7,3.7,3.7S12.1,12.5,10,12.5z"/>
	<path class="st0" d="M11.1,5.8c0-0.2-0.2-0.4-0.4-0.4H9.3c-0.2,0-0.4,0.2-0.4,0.4v1.8H7.1C6.9,7.6,6.7,7.8,6.7,8v1.4
		c0,0.2,0.2,0.4,0.4,0.4h1.8v1.8c0,0.2,0.2,0.4,0.4,0.4h1.4c0.2,0,0.4-0.2,0.4-0.4V9.8h1.8c0.2,0,0.4-0.2,0.4-0.4V8
		c0-0.2-0.2-0.4-0.4-0.4h-1.8V5.8z M12.5,8.4V9h-1.8c-0.2,0-0.4,0.2-0.4,0.4v1.8H9.7V9.4C9.7,9.2,9.5,9,9.3,9H7.5V8.4h1.8
		c0.2,0,0.4-0.2,0.4-0.4V6.2h0.7V8c0,0.2,0.2,0.4,0.4,0.4H12.5z"/>
	<path class="st0" d="M15.3,16.2H4.7c-0.2,0-0.4,0.2-0.4,0.4c0,0.2,0.2,0.4,0.4,0.4h10.6c0.2,0,0.4-0.2,0.4-0.4
		C15.7,16.4,15.5,16.2,15.3,16.2z"/>
</g>
</svg>
