<?xml version="1.0" encoding="utf-8"?>
<!-- Generator: Adobe Illustrator 23.0.5, SVG Export Plug-In . SVG Version: 6.00 Build 0)  -->
<svg version="1.1" id="Layer_1" xmlns="http://www.w3.org/2000/svg" xmlns:xlink="http://www.w3.org/1999/xlink" x="0px" y="0px"
	 viewBox="0 0 20 18.7" style="enable-background:new 0 0 20 18.7;" xml:space="preserve">
<style type="text/css">
	.st0{fill:#C9C9C9;}
</style>
<g id="Layer_x0020_1">
	<path class="st0" d="M3.2,2.7h4.7c0.3,0,0.5,0.2,0.5,0.5v3.1c0,0.3-0.2,0.5-0.5,0.5H3.2c-0.3,0-0.5-0.2-0.5-0.5V3.2
		C2.7,2.9,2.9,2.7,3.2,2.7z M17.4,8.1l2.4,2.2c0.5,0.4-0.2,1.2-0.7,0.7l-2.4-2.2c-0.5,0.4-1,0.6-1.5,0.8v8.6c0,0.3-0.2,0.5-0.5,0.5
		H0.5c-0.3,0-0.5-0.2-0.5-0.5V0.5C0,0.2,0.2,0,0.5,0h14.2c0.3,0,0.5,0.2,0.5,0.5v2c1.6,0.4,2.7,1.7,2.8,3.4
		C18.1,6.6,17.9,7.4,17.4,8.1z M14.2,2.4L14.2,2.4l0-1.4H1v16.7h13.2v-8c-1.9-0.1-3.4-1.6-3.5-3.5C10.6,4.2,12.1,2.5,14.2,2.4z
		 M14.2,3.4c-1.5,0.1-2.6,1.3-2.5,2.8c0.1,1.5,1.3,2.6,2.8,2.5C16,8.6,17.1,7.4,17,5.9C16.9,4.4,15.7,3.3,14.2,3.4z M2.7,16
		c-0.7,0-0.7-1,0-1h6.5c0.7,0,0.7,1,0,1H2.7z M2.7,9.1c-0.7,0-0.7-1,0-1h6.5c0.7,0,0.7,1,0,1H2.7z M2.7,11.4c-0.7,0-0.7-1,0-1h6.5
		c0.7,0,0.7,1,0,1H2.7z M2.7,13.7c-0.7,0-0.7-1,0-1h6.5c0.7,0,0.7,1,0,1C9.2,13.7,2.7,13.7,2.7,13.7z M7.4,3.7H3.7v2.1h3.7
		C7.4,5.9,7.4,3.7,7.4,3.7z"/>
</g>
</svg>
