<?xml version="1.0" encoding="utf-8"?>
<!-- Generator: Adobe Illustrator 23.0.5, SVG Export Plug-In . SVG Version: 6.00 Build 0)  -->
<svg version="1.1" id="Layer_1" xmlns="http://www.w3.org/2000/svg" xmlns:xlink="http://www.w3.org/1999/xlink" x="0px" y="0px"
	 viewBox="0 0 20 18.9" style="enable-background:new 0 0 20 18.9;" xml:space="preserve">
<style type="text/css">
	.st0{fill:#C9C9C9;}
</style>
<path class="st0" d="M19.8,4.9L10.4,0C10.3,0,10.1,0,10,0.1L0.2,5.8C0.1,5.8,0,6,0,6.1c0,0.1,0.1,0.3,0.2,0.3L3,7.9v3.9
	c0,0.1,0.1,0.3,0.2,0.4l1.5,0.8v2.8c-0.7,0.2-1.2,0.8-1.2,1.6c0,0.9,0.7,1.6,1.6,1.6c0.9,0,1.6-0.7,1.6-1.6c0-0.8-0.5-1.4-1.2-1.6
	v-2.4l4.3,2.2c0.1,0,0.1,0,0.2,0c0.1,0,0.1,0,0.2,0l6.6-3.4c0.1-0.1,0.2-0.2,0.2-0.4V7.3l2.8-1.6C19.9,5.6,20,5.4,20,5.3
	C20,5.1,19.9,5,19.8,4.9z M6,17.3c0,0.5-0.4,0.8-0.8,0.8c-0.5,0-0.8-0.4-0.8-0.8c0-0.5,0.4-0.8,0.8-0.8C5.6,16.4,6,16.8,6,17.3z
	 M3.8,11.5V8.3l0.9,0.5V12L3.8,11.5z M16.2,11.5L10,14.8l-4.4-2.3V9.2l4,2.1c0.1,0,0.1,0,0.2,0c0.1,0,0.1,0,0.2-0.1l6.2-3.6
	L16.2,11.5L16.2,11.5z M9.8,10.5L5.8,8.5l3.3-2c0.2,0.2,0.5,0.3,0.8,0.3c0.7,0,1.2-0.6,1.2-1.2c0-0.7-0.6-1.2-1.2-1.2
	c-0.7,0-1.2,0.6-1.2,1.2c0,0.1,0,0.2,0,0.3L5,8.1l-3.8-2l9-5.2l8.5,4.5L9.8,10.5z M9.4,5.6c0-0.2,0.2-0.4,0.4-0.4s0.4,0.2,0.4,0.4
	c0,0.2-0.2,0.4-0.4,0.4C9.6,6,9.4,5.8,9.4,5.6z"/>
</svg>
