<?xml version="1.0" encoding="utf-8"?>
<!-- Generator: Adobe Illustrator 23.0.5, SVG Export Plug-In . SVG Version: 6.00 Build 0)  -->
<svg version="1.1" id="Layer_1" xmlns="http://www.w3.org/2000/svg" xmlns:xlink="http://www.w3.org/1999/xlink" x="0px" y="0px"
	 viewBox="0 0 50 50" style="enable-background:new 0 0 50 50;" xml:space="preserve">
<style type="text/css">
	.st0{fill-rule:evenodd;clip-rule:evenodd;fill:#F4CD1E;}
</style>
<title></title>
<desc></desc>
<path id="Shape" class="st0" d="M26.5,1l6.4,13.6c0.2,0.5,0.7,0.9,1.3,1l14.3,2.2c0.6,0.1,1.2,0.6,1.4,1.2c0.2,0.6,0,1.3-0.4,1.8
	L39.1,31.4c-0.4,0.4-0.6,1-0.5,1.6l2.5,15c0.1,0.6-0.1,1.3-0.6,1.7c-0.5,0.4-1.2,0.5-1.8,0.2l-12.8-7.1c-0.5-0.3-1.1-0.3-1.6,0
	l-12.8,7.1c-0.6,0.3-1.3,0.2-1.8-0.2s-0.8-1.1-0.6-1.7l2.5-15c0.1-0.6-0.1-1.2-0.5-1.6L0.5,20.8c-0.5-0.5-0.6-1.2-0.4-1.8
	c0.2-0.6,0.7-1.1,1.4-1.2l14.3-2.2c0.6-0.1,1-0.5,1.3-1L23.5,1c0.3-0.6,0.9-1,1.5-1S26.2,0.4,26.5,1z"/>
</svg>
