<?xml version="1.0" encoding="utf-8"?>
<!-- Generator: Adobe Illustrator 23.0.5, SVG Export Plug-In . SVG Version: 6.00 Build 0)  -->
<svg version="1.1" id="Layer_1" xmlns="http://www.w3.org/2000/svg" xmlns:xlink="http://www.w3.org/1999/xlink" x="0px" y="0px"
	 viewBox="0 0 20 20.6" style="enable-background:new 0 0 20 20.6;" xml:space="preserve">
<style type="text/css">
	.st0{fill:#C9C9C9;}
</style>
<path class="st0" d="M19.9,5.2c0-0.2-0.1-0.5-0.3-0.6c-0.2-0.2-0.4-0.3-0.7-0.3c-0.9,0-1.6,0.8-1.6,1.7l0,1.5l-0.3,1
	c-0.3,0-0.6,0.1-0.8,0.3l-1.7,1.7l-0.6,0.1c-0.4,0.1-0.7,0.2-1,0.5l-1.1,1.1c-0.3,0.3-0.5,0.8-0.5,1.3l0,1.9
	c-0.5,0.2-0.9,0.7-0.9,1.3l0,2.5c0,0.4,0.1,0.7,0.4,1c0.3,0.3,0.6,0.4,1,0.4l4.1,0c0,0,0,0,0,0c0.4,0,0.7-0.1,0.9-0.4
	c0.3-0.3,0.4-0.6,0.4-1l0-2.5c0-0.4-0.1-0.7-0.4-1c-0.1-0.1-0.3-0.3-0.5-0.3l0-0.1c0.1-0.4,0.3-0.8,0.6-1.1l1.9-1.9
	c0.5-0.5,0.8-1.2,0.9-1.8l0.2-2c0-0.1,0-0.1,0-0.2l0,0c0,0,0,0,0,0c0,0,0,0,0,0L19.9,5.2z M16.6,16.8l0,2.5c0,0.2-0.1,0.3-0.2,0.5
	C16.2,19.9,16,20,15.9,20l-4.1,0c-0.2,0-0.3-0.1-0.5-0.2c-0.1-0.1-0.2-0.3-0.2-0.5l0-2.5c0-0.4,0.3-0.7,0.7-0.7c0,0,0,0,0,0l4.1,0
	c0.2,0,0.3,0.1,0.5,0.2C16.5,16.5,16.6,16.6,16.6,16.8z M18.4,11.9l-1.9,1.9c-0.4,0.4-0.7,0.9-0.8,1.5l0,0.1l-3.7,0l0-1.8
	c0-0.3,0.1-0.6,0.3-0.8l1.1-1.1c0.2-0.2,0.4-0.3,0.6-0.3l0.7-0.1c0,0,0,0,0.1,0c0,0,0,0,0,0c0,0,0.1,0,0.1-0.1c0,0,0,0,0,0l1.7-1.7
	c0.2-0.2,0.5-0.2,0.7,0c0.2,0.2,0.2,0.5,0,0.7l-2,2c-0.1,0.1-0.1,0.4,0,0.5c0.1,0.1,0.2,0.1,0.2,0.1s0.2,0,0.2-0.1l2-2
	c0.5-0.5,0.5-1.2,0-1.7c-0.1-0.1-0.1-0.1-0.2-0.1l0.3-1.1c0,0,0,0,0,0c0,0,0,0,0,0c0,0,0,0,0,0c0,0,0,0,0,0L18,6c0-0.5,0.4-1,0.9-1
	c0.1,0,0.1,0,0.2,0.1c0,0,0.1,0.1,0.1,0.2l0.1,3.1l0,0.2c0,0,0,0,0,0l-0.2,1.9C19,11,18.8,11.5,18.4,11.9z"/>
<circle class="st0" cx="15.7" cy="17.1" r="0.6"/>
<path class="st0" d="M8.7,15.5l0-1.9c0-0.5-0.2-0.9-0.5-1.3l-1.1-1.1c-0.3-0.3-0.6-0.5-1-0.5l-0.6-0.1L3.7,8.9
	C3.4,8.6,3.1,8.5,2.8,8.5l-0.3-1l0-1.5c0-0.9-0.7-1.7-1.6-1.7c-0.3,0-0.5,0.1-0.7,0.3C0.2,4.7,0.1,5,0.1,5.2L0,8.3c0,0,0,0,0,0
	c0,0,0,0,0,0l0,0c0,0.1,0,0.2,0,0.2l0.2,2c0.1,0.7,0.4,1.3,0.9,1.8l1.9,1.9c0.3,0.3,0.5,0.7,0.6,1.1l0,0.1c-0.2,0.1-0.4,0.2-0.5,0.3
	c-0.3,0.3-0.4,0.6-0.4,1l0,2.5c0,0.4,0.1,0.7,0.4,1c0.3,0.3,0.6,0.4,0.9,0.4c0,0,0,0,0,0l4.1,0c0.4,0,0.7-0.1,1-0.4s0.4-0.6,0.4-1
	l0-2.5C9.6,16.1,9.2,15.6,8.7,15.5z M3.5,13.9l-1.9-1.9C1.2,11.5,1,11,0.9,10.5L0.7,8.6c0,0,0,0,0,0l0-0.2l0.1-3.1
	c0-0.1,0-0.1,0.1-0.2C0.9,5,1,5,1,5C1.5,5,2,5.4,1.9,6L1.9,7.5c0,0,0,0,0,0c0,0,0,0,0,0c0,0,0,0,0,0c0,0,0,0,0,0l0.3,1.1
	C2.1,8.8,2.1,8.8,2,8.9c-0.5,0.5-0.5,1.2,0,1.7l2,2c0.1,0.1,0.2,0.1,0.2,0.1s0.2,0,0.2-0.1c0.1-0.1,0.1-0.4,0-0.5l-2-2
	c-0.2-0.2-0.2-0.5,0-0.7c0.2-0.2,0.5-0.2,0.7,0l1.7,1.7c0,0,0,0,0,0c0,0,0.1,0.1,0.1,0.1c0,0,0,0,0,0c0,0,0,0,0.1,0l0.7,0.1
	c0.2,0,0.5,0.2,0.6,0.3l1.1,1.1c0.2,0.2,0.3,0.5,0.3,0.8l0,1.8l-3.7,0l0-0.1C4.2,14.8,3.9,14.3,3.5,13.9z M8.7,19.7
	c-0.1,0.1-0.3,0.2-0.5,0.2l-4.1,0c-0.2,0-0.3-0.1-0.5-0.2c-0.1-0.1-0.2-0.3-0.2-0.5l0-2.5c0-0.2,0.1-0.3,0.2-0.5
	c0.1-0.1,0.3-0.2,0.5-0.2l4.1,0c0,0,0,0,0,0c0.4,0,0.7,0.3,0.7,0.7l0,2.5C8.9,19.4,8.9,19.6,8.7,19.7z"/>
<circle class="st0" cx="4.2" cy="17.1" r="0.6"/>
<path class="st0" d="M5.4,6.6H6c0.1,0.3,0.2,0.5,0.3,0.8L5.9,7.8c-0.3,0.3-0.3,0.7,0,1l0.6,0.6C6.7,9.6,6.9,9.7,7,9.7
	s0.4-0.1,0.5-0.2L8,9c0.3,0.1,0.5,0.2,0.8,0.3V10c0,0.4,0.3,0.7,0.7,0.7h0.9c0.4,0,0.7-0.3,0.7-0.7V9.4C11.4,9.3,11.7,9.2,12,9
	l0.5,0.5c0.1,0.1,0.3,0.2,0.5,0.2s0.4-0.1,0.5-0.2l0.6-0.6c0.3-0.3,0.3-0.7,0-1l-0.5-0.5c0.1-0.3,0.2-0.5,0.3-0.8h0.6
	c0.4,0,0.7-0.3,0.7-0.7V5c0-0.4-0.3-0.7-0.7-0.7H14c-0.1-0.3-0.2-0.5-0.3-0.8L14.1,3c0.3-0.3,0.3-0.7,0-1l-0.6-0.6
	c-0.3-0.3-0.7-0.3-1,0L12,1.8c-0.3-0.1-0.5-0.2-0.8-0.3V0.8c0-0.4-0.3-0.7-0.7-0.7H9.5c-0.4,0-0.7,0.3-0.7,0.7v0.6
	C8.5,1.5,8.3,1.6,8,1.8L7.6,1.3C7.3,1,6.8,1,6.5,1.3L5.9,2c-0.3,0.3-0.3,0.7,0,1l0.5,0.5C6.2,3.7,6.1,4,6,4.2H5.4
	C5,4.2,4.7,4.6,4.7,5v0.9C4.7,6.3,5,6.6,5.4,6.6z M5.3,5C5.3,4.9,5.4,4.9,5.3,5l0.9,0c0,0,0,0,0,0c0,0,0,0,0,0c0,0,0.1,0,0.1,0
	c0,0,0,0,0,0c0,0,0.1,0,0.1,0c0,0,0,0,0,0c0,0,0,0,0.1-0.1c0,0,0,0,0,0c0,0,0-0.1,0-0.1c0,0,0,0,0,0c0.1-0.4,0.2-0.8,0.5-1.1
	c0,0,0,0,0-0.1c0,0,0,0,0,0c0,0,0-0.1,0-0.1c0,0,0,0,0,0c0,0,0-0.1,0-0.1c0,0,0,0,0,0c0,0,0-0.1-0.1-0.1c0,0,0,0,0,0l0,0
	c0,0,0,0,0,0L6.4,2.5c0,0,0,0,0-0.1L7,1.8c0,0,0,0,0.1,0l0.6,0.6c0,0,0,0,0,0c0,0,0.1,0,0.1,0.1c0,0,0,0,0,0c0,0,0.1,0,0.1,0
	c0,0,0,0,0,0h0c0,0,0.1,0,0.1,0c0,0,0,0,0,0c0,0,0,0,0,0C8.5,2.3,8.8,2.1,9.2,2c0,0,0,0,0,0c0,0,0,0,0,0c0,0,0,0,0,0c0,0,0,0,0,0
	c0,0,0,0,0,0c0,0,0,0,0,0c0,0,0,0,0,0c0,0,0,0,0,0c0,0,0,0,0,0c0,0,0,0,0,0c0,0,0,0,0,0c0,0,0,0,0,0c0,0,0,0,0,0c0,0,0,0,0,0v0
	c0,0,0,0,0,0V0.8c0,0,0,0,0,0h0.9c0,0,0,0,0,0v0.9c0,0,0,0,0,0v0c0,0,0,0,0,0c0,0,0,0,0,0c0,0,0,0,0,0c0,0,0,0,0,0c0,0,0,0,0,0
	c0,0,0,0,0,0c0,0,0,0,0,0c0,0,0,0,0,0c0,0,0,0,0,0c0,0,0,0,0,0c0,0,0,0,0,0c0,0,0,0,0,0c0,0,0,0,0,0c0,0,0,0,0,0
	c0.4,0.1,0.8,0.2,1.1,0.5c0,0,0,0,0,0c0,0,0,0,0,0c0,0,0.1,0,0.1,0h0c0,0,0,0,0,0c0,0,0.1,0,0.1,0c0,0,0,0,0,0c0,0,0.1,0,0.1-0.1
	c0,0,0,0,0,0l0.6-0.6c0,0,0,0,0.1,0l0.6,0.6c0,0,0,0,0,0.1L13,3.1c0,0,0,0,0,0l0,0c0,0,0,0,0,0c0,0-0.1,0.1-0.1,0.1c0,0,0,0,0,0
	c0,0,0,0.1,0,0.1c0,0,0,0,0,0c0,0,0,0.1,0,0.1c0,0,0,0,0,0c0,0,0,0,0,0.1c0.2,0.3,0.4,0.7,0.5,1.1c0,0,0,0,0,0c0,0,0,0.1,0,0.1
	c0,0,0,0,0,0c0,0,0,0.1,0.1,0.1c0,0,0,0,0,0c0,0,0.1,0,0.1,0c0,0,0,0,0,0c0,0,0.1,0,0.1,0c0,0,0,0,0,0c0,0,0,0,0,0h0.9c0,0,0,0,0,0
	v0.9c0,0,0,0,0,0h-0.9c0,0,0,0,0,0h0c0,0,0,0,0,0c0,0,0,0,0,0c0,0,0,0,0,0c0,0,0,0,0,0c0,0,0,0,0,0c0,0,0,0,0,0c0,0,0,0,0,0
	c0,0,0,0,0,0c0,0,0,0,0,0c0,0,0,0,0,0c0,0,0,0,0,0c0,0,0,0,0,0c0,0,0,0,0,0c0,0,0,0,0,0c-0.1,0.4-0.2,0.8-0.5,1.1c0,0,0,0,0,0.1
	c0,0,0,0,0,0c0,0,0,0.1,0,0.1c0,0,0,0,0,0c0,0,0,0.1,0,0.1c0,0,0,0,0,0c0,0,0,0.1,0.1,0.1c0,0,0,0,0,0l0,0c0,0,0,0,0,0l0.6,0.6
	c0,0,0,0,0,0.1L13,9c0,0,0,0-0.1,0l-0.6-0.6c0,0,0,0,0,0l0,0c0,0,0,0,0,0c0,0-0.1-0.1-0.1-0.1c0,0,0,0,0,0c0,0-0.1,0-0.1,0
	c0,0,0,0,0,0c0,0-0.1,0-0.1,0c0,0,0,0,0,0c0,0,0,0-0.1,0c-0.3,0.2-0.7,0.4-1.1,0.5c0,0,0,0,0,0c0,0,0,0,0,0c0,0,0,0,0,0c0,0,0,0,0,0
	c0,0,0,0,0,0c0,0,0,0,0,0c0,0,0,0,0,0c0,0,0,0,0,0c0,0,0,0,0,0c0,0,0,0,0,0c0,0,0,0,0,0c0,0,0,0,0,0c0,0,0,0,0,0c0,0,0,0,0,0V10
	c0,0,0,0,0,0H9.5c0,0,0,0,0,0V9.1c0,0,0,0,0,0c0,0,0,0,0,0c0,0,0,0,0,0c0,0,0,0,0,0c0,0,0,0,0,0c0,0,0,0,0,0c0,0,0,0,0,0
	c0,0,0,0,0,0c0,0,0,0,0,0c0,0,0,0,0,0c0,0,0,0,0,0c0,0,0,0,0,0c0,0,0,0,0,0c0,0,0,0,0,0C8.8,8.7,8.5,8.5,8.1,8.3c0,0,0,0-0.1,0
	c0,0,0,0,0,0c0,0-0.1,0-0.1,0c0,0,0,0,0,0c0,0-0.1,0-0.1,0c0,0,0,0,0,0c0,0-0.1,0-0.1,0.1c0,0,0,0,0,0l0,0c0,0,0,0,0,0L7.1,9
	c0,0,0,0-0.1,0L6.4,8.4c0,0,0,0,0-0.1L7,7.7c0,0,0,0,0,0l0,0c0,0,0,0,0,0c0,0,0.1-0.1,0.1-0.1c0,0,0,0,0,0c0,0,0-0.1,0-0.1
	c0,0,0,0,0,0c0,0,0-0.1,0-0.1c0,0,0,0,0,0c0,0,0,0,0-0.1C6.9,6.9,6.7,6.6,6.6,6.2c0,0,0,0,0,0c0,0,0,0,0,0c0,0,0,0,0,0c0,0,0,0,0,0
	c0,0,0,0,0,0c0,0,0,0,0,0c0,0,0,0,0,0c0,0,0,0,0,0c0,0,0,0,0,0c0,0,0,0,0,0c0,0,0,0,0,0c0,0,0,0,0,0c0,0,0,0,0,0c0,0,0,0,0,0h0
	c0,0,0,0,0,0H5.4c0,0,0,0,0,0L5.3,5L5.3,5z"/>
<path class="st0" d="M10,7.3c1,0,1.9-0.9,1.9-1.9S11,3.5,10,3.5S8.1,4.4,8.1,5.4S8.9,7.3,10,7.3z M10,4.2c0.7,0,1.2,0.5,1.2,1.2
	S10.7,6.6,10,6.6c-0.7,0-1.2-0.5-1.2-1.2S9.3,4.2,10,4.2z"/>
</svg>
