<?xml version="1.0" encoding="utf-8"?>
<!-- Generator: Adobe Illustrator 23.0.5, SVG Export Plug-In . SVG Version: 6.00 Build 0)  -->
<svg version="1.1" id="Layer_1" xmlns="http://www.w3.org/2000/svg" xmlns:xlink="http://www.w3.org/1999/xlink" x="0px" y="0px"
	 viewBox="0 0 20 20" style="enable-background:new 0 0 20 20;" xml:space="preserve">
<style type="text/css">
	.st0{fill:#2DACE4;}
</style>
<path class="st0" d="M10,0C4.5,0,0,4.5,0,10s4.5,10,10,10s10-4.5,10-10S15.5,0,10,0z M7.5,14l-2,0.7c-0.1,0-0.2-0.1-0.2-0.2l0.7-2
	l5.7-5.7l1.5,1.5L7.5,14z M15.2,6.4l-1.5,1.5l-1.5-1.5l1.5-1.5c0-0.1,0.1-0.1,0.2,0l1.3,1.3C15.3,6.2,15.3,6.3,15.2,6.4z"/>
</svg>
