<?xml version="1.0" encoding="utf-8"?>
<!-- Generator: Adobe Illustrator 23.0.5, SVG Export Plug-In . SVG Version: 6.00 Build 0)  -->
<svg version="1.1" id="Layer_1" xmlns="http://www.w3.org/2000/svg" xmlns:xlink="http://www.w3.org/1999/xlink" x="0px" y="0px"
	 viewBox="0 0 20 20" style="enable-background:new 0 0 20 20;" xml:space="preserve">
<style type="text/css">
	.st0{fill:#707070;}
</style>
<g>
	<g>
		<g>
			<path class="st0" d="M10,0C4.5,0,0,4.5,0,10s4.5,10,10,10s10-4.5,10-10S15.5,0,10,0z M10,18.3c-4.6,0-8.3-3.7-8.3-8.3
				S5.4,1.7,10,1.7s8.3,3.7,8.3,8.3S14.6,18.3,10,18.3z"/>
			<path class="st0" d="M13.6,7.7L10,11.3L6.4,7.7c-0.3-0.3-0.9-0.3-1.2,0s-0.3,0.9,0,1.2l4.2,4.2c0.3,0.3,0.9,0.3,1.2,0l4.2-4.2
				c0.3-0.3,0.3-0.9,0-1.2C14.4,7.4,13.9,7.4,13.6,7.7z"/>
		</g>
	</g>
</g>
</svg>
