<?xml version="1.0" encoding="utf-8"?>
<!-- Generator: Adobe Illustrator 23.0.5, SVG Export Plug-In . SVG Version: 6.00 Build 0)  -->
<svg version="1.1" id="Layer_1" xmlns="http://www.w3.org/2000/svg" xmlns:xlink="http://www.w3.org/1999/xlink" x="0px" y="0px"
	 viewBox="0 0 20 20" style="enable-background:new 0 0 20 20;" xml:space="preserve">
<style type="text/css">
	.st0{fill:#FFFFFF;}
</style>
<g id="Outline_Color_copy_2">
	<path class="st0" d="M17.5,0.6c1,0,1.9,0.8,1.9,1.9v15c0,1-0.8,1.9-1.9,1.9h-15c-1,0-1.9-0.8-1.9-1.9v-15c0-1,0.8-1.9,1.9-1.9H17.5
		 M17.5,0h-15C1.1,0,0,1.1,0,2.5v15C0,18.9,1.1,20,2.5,20h15c1.4,0,2.5-1.1,2.5-2.5v-15C20,1.1,18.9,0,17.5,0L17.5,0z"/>
	<path class="st0" d="M8.5,15.8h2.4V10h1.6l0.2-2h-1.8l0-1c0-0.5,0-0.8,0.8-0.8h1v-2h-1.6c-1.9,0-2.6,1-2.6,2.6V8H7.3v2h1.2V15.8z"
		/>
</g>
</svg>
