<?xml version="1.0" encoding="utf-8"?>
<!-- Generator: Adobe Illustrator 23.0.5, SVG Export Plug-In . SVG Version: 6.00 Build 0)  -->
<svg version="1.1" id="Layer_21" xmlns="http://www.w3.org/2000/svg" xmlns:xlink="http://www.w3.org/1999/xlink" x="0px" y="0px"
	 viewBox="0 0 20 20" style="enable-background:new 0 0 20 20;" xml:space="preserve">
<style type="text/css">
	.st0{fill:#FFFFFF;}
</style>
<title></title>
<path class="st0" d="M13.9,0H6.1C2.7,0,0,2.7,0,6.1v7.8C0,17.3,2.7,20,6.1,20h7.8c3.4,0,6.1-2.7,6.1-6.1V6.1C20,2.7,17.3,0,13.9,0z
	 M18.3,13.9c0,2.5-2,4.4-4.4,4.4H6.1c-2.5,0-4.4-2-4.4-4.4V6.1c0-2.5,2-4.4,4.4-4.4h7.8c2.5,0,4.4,2,4.4,4.4V13.9z"/>
<path class="st0" d="M10,5c-2.8,0-5,2.2-5,5s2.2,5,5,5s5-2.2,5-5S12.8,5,10,5z M10,13.3c-1.8,0-3.3-1.5-3.3-3.3S8.2,6.7,10,6.7
	s3.3,1.5,3.3,3.3C13.3,11.8,11.8,13.3,10,13.3z"/>
<circle class="st0" cx="15.2" cy="4.8" r="1.1"/>
</svg>
