<?xml version="1.0" encoding="utf-8"?>
<!-- Generator: Adobe Illustrator 23.0.5, SVG Export Plug-In . SVG Version: 6.00 Build 0)  -->
<svg version="1.1" id="Layer_1" xmlns="http://www.w3.org/2000/svg" xmlns:xlink="http://www.w3.org/1999/xlink" x="0px" y="0px"
	 viewBox="0 0 20 20" style="enable-background:new 0 0 20 20;" xml:space="preserve">
<style type="text/css">
	.st0{fill:#FFFFFF;}
</style>
<title></title>
<path class="st0" d="M18.4,1.3c0.2,0,0.3,0.1,0.3,0.3c0,0,0,0,0,0v16.8c0,0.2-0.1,0.3-0.3,0.3h0H1.6c-0.2,0-0.3-0.1-0.3-0.3l0,0V1.6
	c0-0.2,0.1-0.3,0.3-0.3H18.4 M18.4,0H1.6C0.7,0,0,0.7,0,1.6l0,0v16.8C0,19.3,0.7,20,1.6,20h16.8c0.9,0,1.6-0.7,1.6-1.6v0V1.6
	C20,0.7,19.3,0,18.4,0C18.4,0,18.4,0,18.4,0L18.4,0z"/>
<rect x="4.7" y="7.3" class="st0" width="2.3" height="8.3"/>
<path class="st0" d="M12.6,7.3c-2,0-2,1.2-2,1.2V7.3H8.2v8.3h2.4v-4.8c0-0.4,0.1-1.2,1.2-1.2s1.1,1.1,1.1,1.1v4.8h2.4v-5.2
	C15.3,8,14,7.3,12.6,7.3z"/>
<circle class="st0" cx="5.8" cy="5.5" r="1.2"/>
</svg>
