<?xml version="1.0" encoding="utf-8"?>
<!-- Generator: Adobe Illustrator 23.0.5, SVG Export Plug-In . SVG Version: 6.00 Build 0)  -->
<svg version="1.1" id="Layer_1" xmlns="http://www.w3.org/2000/svg" xmlns:xlink="http://www.w3.org/1999/xlink" x="0px" y="0px"
	 viewBox="0 0 50 50" style="enable-background:new 0 0 50 50;" xml:space="preserve">
<style type="text/css">
	.st0{fill:#FF614F;}
	.st1{opacity:0.5;}
	.st2{opacity:0.1;}
	.st3{opacity:0.6;}
	.st4{opacity:0.3;}
	.st5{opacity:0.7;}
	.st6{opacity:0.4;}
	.st7{opacity:0.8;}
</style>
<g>
	<path class="st0" d="M25,13.6c-1.3,0-2.3-1-2.3-2.3V2.3C22.7,1,23.7,0,25,0s2.3,1,2.3,2.3v9.1C27.3,12.6,26.3,13.6,25,13.6z"/>
</g>
<g class="st1">
	<path class="st0" d="M25,50c-1.3,0-2.3-1-2.3-2.3v-9.1c0-1.3,1-2.3,2.3-2.3s2.3,1,2.3,2.3v9.1C27.3,49,26.3,50,25,50z"/>
</g>
<g class="st2">
	<path class="st0" d="M15.4,17.6c-0.6,0-1.2-0.2-1.6-0.7l-6.4-6.4c-0.9-0.9-0.9-2.3,0-3.2s2.3-0.9,3.2,0l6.4,6.4
		c0.9,0.9,0.9,2.3,0,3.2C16.5,17.4,15.9,17.6,15.4,17.6z"/>
</g>
<g class="st3">
	<path class="st0" d="M41.1,43.3c-0.6,0-1.2-0.2-1.6-0.7L33,36.2c-0.9-0.9-0.9-2.3,0-3.2s2.3-0.9,3.2,0l6.4,6.4
		c0.9,0.9,0.9,2.3,0,3.2C42.2,43.1,41.7,43.3,41.1,43.3z"/>
</g>
<g class="st4">
	<path class="st0" d="M11.4,27.3H2.3C1,27.3,0,26.3,0,25s1-2.3,2.3-2.3h9.1c1.3,0,2.3,1,2.3,2.3S12.6,27.3,11.4,27.3z"/>
</g>
<g class="st5">
	<path class="st0" d="M47.7,27.3h-9.1c-1.3,0-2.3-1-2.3-2.3s1-2.3,2.3-2.3h9.1c1.3,0,2.3,1,2.3,2.3S49,27.3,47.7,27.3z"/>
</g>
<g class="st6">
	<path class="st0" d="M8.9,43.3c-0.6,0-1.2-0.2-1.6-0.7c-0.9-0.9-0.9-2.3,0-3.2l6.4-6.4c0.9-0.9,2.3-0.9,3.2,0
		c0.9,0.9,0.9,2.3,0,3.2l-6.4,6.4C10.1,43.1,9.5,43.3,8.9,43.3z"/>
</g>
<g class="st7">
	<path class="st0" d="M34.6,17.6c-0.6,0-1.2-0.2-1.6-0.7c-0.9-0.9-0.9-2.3,0-3.2l6.4-6.4c0.9-0.9,2.3-0.9,3.2,0s0.9,2.3,0,3.2
		L36.2,17C35.8,17.4,35.2,17.6,34.6,17.6z"/>
</g>
</svg>
