<?xml version="1.0" encoding="utf-8"?>
<!-- Generator: Adobe Illustrator 23.0.5, SVG Export Plug-In . SVG Version: 6.00 Build 0)  -->
<svg version="1.1" id="Layer_1" xmlns="http://www.w3.org/2000/svg" xmlns:xlink="http://www.w3.org/1999/xlink" x="0px" y="0px"
	 viewBox="0 0 20 16.6" style="enable-background:new 0 0 20 16.6;" xml:space="preserve">
<style type="text/css">
	.st0{fill-rule:evenodd;clip-rule:evenodd;fill:#FFFFFF;}
</style>
<path class="st0" d="M10,9.2C8.4,9.2,0,2.4,0,2.4V1.7C0,0.7,0.7,0,1.7,0h16.7C19.3,0,20,0.7,20,1.7l0,0.8C20,2.5,11.7,9.2,10,9.2z
	 M10,11.4c1.8,0,10-6.5,10-6.5l0,10c0,0.9-0.7,1.7-1.7,1.7H1.7C0.7,16.6,0,15.9,0,15L0,5C0,5,8.4,11.4,10,11.4z"/>
</svg>
