<?xml version="1.0" encoding="utf-8"?>
<!-- Generator: Adobe Illustrator 23.0.5, SVG Export Plug-In . SVG Version: 6.00 Build 0)  -->
<svg version="1.1" id="Layer_1" xmlns="http://www.w3.org/2000/svg" xmlns:xlink="http://www.w3.org/1999/xlink" x="0px" y="0px"
	 viewBox="0 0 20 20" style="enable-background:new 0 0 20 20;" xml:space="preserve">
<style type="text/css">
	.st0{fill:#FFFFFF;}
</style>
<path class="st0" d="M20,15.8c0,0.3,0,0.6-0.1,1s-0.2,0.7-0.3,1c-0.2,0.5-0.8,1-1.7,1.5c-0.9,0.5-1.8,0.7-2.6,0.7
	c-0.3,0-0.5,0-0.7,0c-0.2,0-0.5-0.1-0.8-0.2c-0.3-0.1-0.5-0.2-0.7-0.2c-0.1-0.1-0.4-0.1-0.8-0.3c-0.4-0.1-0.6-0.2-0.7-0.3
	c-0.9-0.3-1.8-0.7-2.5-1.2c-1.2-0.7-2.5-1.8-3.8-3.1S2.9,12.2,2.2,11C1.7,10.3,1.3,9.5,1,8.5c0-0.1-0.1-0.3-0.3-0.7S0.5,7.2,0.4,7.1
	S0.3,6.7,0.2,6.4S0.1,5.8,0,5.6c0-0.2,0-0.5,0-0.7c0-0.9,0.2-1.8,0.7-2.6c0.5-1,1-1.5,1.5-1.7c0.2-0.1,0.6-0.2,1-0.3S3.9,0,4.2,0
	c0.1,0,0.2,0,0.3,0c0.2,0.1,0.4,0.4,0.8,1.1c0.1,0.2,0.2,0.4,0.4,0.8S6,2.5,6.2,2.8c0.2,0.3,0.3,0.5,0.4,0.8c0,0,0.1,0.2,0.2,0.4
	C7,4.1,7.1,4.3,7.2,4.4s0.1,0.3,0.1,0.4c0,0.2-0.1,0.4-0.4,0.7C6.6,5.8,6.3,6.1,6,6.3C5.7,6.5,5.4,6.8,5.1,7.1
	C4.8,7.3,4.7,7.5,4.7,7.7c0,0.1,0,0.2,0.1,0.3c0,0.1,0.1,0.2,0.1,0.3c0,0.1,0.1,0.2,0.2,0.3c0.1,0.2,0.2,0.3,0.2,0.3
	c0.7,1.3,1.5,2.4,2.5,3.3c0.9,0.9,2,1.8,3.3,2.5c0,0,0.1,0.1,0.3,0.2c0.2,0.1,0.3,0.2,0.3,0.2c0.1,0,0.2,0.1,0.3,0.1
	c0.1,0,0.2,0.1,0.3,0.1c0.2,0,0.4-0.1,0.7-0.4s0.5-0.6,0.8-0.9c0.2-0.3,0.5-0.6,0.8-0.9c0.3-0.3,0.5-0.4,0.7-0.4
	c0.1,0,0.3,0,0.4,0.1c0.1,0.1,0.3,0.2,0.5,0.3s0.3,0.2,0.4,0.2c0.2,0.1,0.5,0.3,0.8,0.4c0.3,0.2,0.6,0.3,0.9,0.5
	c0.3,0.2,0.6,0.3,0.8,0.4c0.7,0.3,1,0.6,1.1,0.8C20,15.6,20,15.7,20,15.8z"/>
</svg>
