<?xml version="1.0" encoding="utf-8"?>
<!-- Generator: Adobe Illustrator 23.0.5, SVG Export Plug-In . SVG Version: 6.00 Build 0)  -->
<svg version="1.1" id="Layer_1" xmlns="http://www.w3.org/2000/svg" xmlns:xlink="http://www.w3.org/1999/xlink" x="0px" y="0px"
	 viewBox="0 0 500 500" style="enable-background:new 0 0 500 500;" xml:space="preserve">
<style type="text/css">
	.st0{fill:#E04F5F;}
	.st1{fill:#E27181;}
	.st2{fill:#C7D5DD;}
</style>
<g>
	<polygon class="st0" points="204.5,331.1 338.7,250 204.5,168.9 	"/>
	<polygon class="st1" points="204.5,250 338.7,250 204.5,168.9 	"/>
	<path class="st2" d="M250,109.1h-6h-0.2l0,0h-0.3l0,0h-0.2l0,0h-0.2l0,0h-0.2l0,0h-0.2l0,0h-0.2l0,0c-2.1,0.1-4.2,0.3-6.3,0.4l0,0
		H236l0,0h-0.2l0,0h-0.1h0.3h-0.1h-0.1h-0.1h-0.1h-0.1h-0.1h-0.1h-0.8h-0.1h-0.1h-0.1h-0.1H234l0,0h-0.1l0,0h0.1l0,0h-0.1l0,0h-0.1
		l0,0h-0.1l0,0h-0.1l0,0h-0.2l0,0h-0.2l0,0c-1.8,0.2-3.5,0.4-5.2,0.7l2.7,17.4c6.3-0.8,12.7-1.1,19.1-0.9
		C250,126.7,250,109.1,250,109.1z M206.7,115.9c-1,0.3-2.1,0.7-3.1,1l0,0l-0.1,0.1l0,0l-0.1,0.1l0,0h-0.1l0,0l0,0l0,0h-0.1l0,0l0,0
		h-0.1l0,0l0,0H203l0,0l0,0h-0.1l0,0l0,0l0,0h-0.1l0,0h-0.1l0,0h-0.1l0,0h-0.1l0,0h-0.1l0,0h-0.1l0,0h-0.1l0,0h-0.1l0,0H202l0,0
		h-0.1l0,0h-0.1l0,0l-0.2,0.1l0,0h-0.1l0,0c-3.5,1.3-7,2.7-10.3,4.3l0,0l-0.2,0.1l0,0h-0.1l0,0l-0.1,0.1l0,0h-0.1l0,0l-0.3,0.4l0,0
		h-0.1l0,0h-0.1l0,0h-0.1l0,0H190l0,0h-0.1l0,0h-0.1l0,0l0,0l0,0l0,0l0,0l0,0h-0.1l0,0l-0.2,0.2l0,0h-0.1l0,0
		c-1.1,0.5-2.2,1.1-3.3,1.6l8,15.7c5.7-2.9,11.7-5.4,17.8-7.3L206.7,115.9z M167.5,135.7c-0.8,0.6-1.6,1.2-2.5,1.8l0,0l-0.1,0.1l0,0
		l0,0l0,0l-0.1,0.1l0,0h-0.1l0,0l0,0l0,0l0,0l0,0l0,0l0,0l0,0l0,0l0,0h-0.1l0,0h-0.1l0,0h-0.1l0,0h-0.1l0,0l-0.1,0.1l0,0l-0.1,0.1
		l0,0c-3.5,2.7-6.9,5.6-10.2,8.6l0,0l-0.1,0.1l0,0l-0.1,0.1l0,0l-0.1,0.1l0,0l-0.1,0.1l0,0l0,0l0,0h-0.1l0,0l0,0l0,0l0,0l0,0l0,0
		l0,0l-0.3,0.3l0,0l0,0l0,0l0,0l0,0l0,0l0,0l0,0l0,0l0,0H153l0,0l-0.1,0.1l0,0l-0.1,0.1l0,0c-0.6,0.6-1.2,1.2-1.8,1.8l12.4,12.5
		c4.6-4.5,9.5-8.7,14.7-12.5L167.5,135.7L167.5,135.7z M136.3,166.6c-3,4.1-5.8,8.3-8.4,12.7l0,0l-0.1,0.1l0,0l-0.1,0.1l0,0v0.1l0,0
		l0,0l0,0v0.1l0,0l-0.1,0.1l0,0v0.1l0,0l-0.1,0.1l0,0v0.1l0,0l0,0l0,0v0.1l0,0l-0.1,0.1l0,0v0.1l0,0l0,0l0,0v0.1l0,0v0.1l0,0l0,0
		l0,0v0.1l0,0l0,0l0,0l0,0l0,0l0,0l0,0l0,0l0,0l0,0l0,0l0,0v0.1l0,0l0,0l0,0l0,0l0,0L127,181l0,0l0,0l0,0v0.1l0,0l0,0l0,0l0,0l0,0
		v0.1l0,0l0,0l0,0v0.1l0,0v0.1l0,0l0,0l0,0v0.1l0,0v0.1l0,0v0.1l0,0v0.1l0,0v0.1l0,0v0.1l0,0v0.1l0,0v0.1l0,0v0.1l0,0l-0.1,0.1l0,0
		v0.1l0,0l-0.1,0.1l0,0l-0.1,0.2l0,0l-0.2,0.4l0,0c-0.2,0.4-0.4,0.8-0.6,1.2l15.7,8.1c3-5.7,6.4-11.2,10.2-16.4L136.3,166.6z
		 M116.1,205.6c-0.5,1.6-1,3.2-1.5,4.9l0,0l-0.1,0.2l0,0v0.2l0,0v0.1l0,0v0.1l0,0v0.1l0,0v0.1l0,0v0.1l0,0v0.1l0,0v0.1l0,0v0.1l0,0
		l0,0l0,0v0.1l0,0l0,0l0,0v0.1l0,0l0,0l0,0l0,0l0,0l0,0v0.1l0,0l0,0l0,0l0,0l0,0v0.1l0,0l0,0l0,0v0.1l0,0v0.1l0,0v0.2l0,0v0.1l0,0
		v0.2l0,0c-1.2,4.5-2.2,9.1-3,13.8l17.4,2.9c1-6.3,2.6-12.6,4.6-18.7l-16.7-5.6L116.1,205.6z M109,248.9L109,248.9
		c0,0.3,0,0.6,0,0.9l0,0v0.2l0,0v9.5v0.1v0.1l0,0v0.7v0.1l0,0v0.1v0.1v0.1v0.2v0.1v0.1v0.1l0,0v0.1v0.1v0.1v0.1v0.1v0.1v0.1v0.1v0.1
		l0,0v0.1v0.1v0.1v0.1v0.1v0.1v0.1v0.1v0.1l0,0v0.1v0.1l0,0v0.1v0.2v0.1v0.1v0.1v0.7v0.1v0.1v0.1v0.1v0.1v0.1v0.1v0.1v0.1v0.1v0.1
		v0.1v0.1v0.1v0.1v0.3v0.1v0.7v0.1v0.1v0.1v0.5v0.1v0.1v0.1v0.1v0.1v0.1v0.1v0.3v0.1v0.1v0.1l0,0l0,0l0,0v0.1l0,0v0.1l0,0v0.1l0,0
		v0.1l0,0v0.1l0,0v0.1l0,0v0.1l0,0v0.1l0,0v0.1l0,0v0.1l0,0v0.1l0,0v0.1l0,0v0.1l0,0v0.1l0,0v0.1l0,0v0.1l0,0v0.1l0,0v0.1l0,0v0.1
		l0,0v0.1l0,0v0.1l0,0v0.1l0,0v0.1l0,0v0.1l0,0l18.9-2.3c-0.9-6-1.3-12.1-1.3-18.2v-1C126.6,249,109,248.9,109,248.9z M132.3,287
		l-16.8,5.3c0.3,0.9,0.6,1.8,0.9,2.8l0,0v0.1l0,0v0.1l0,0v0.1l0,0v0.1l0,0l0,0l0,0v0.1l0,0l0,0l0,0l0,0l0,0v0.1l0,0l0,0l0,0l0,0l0,0
		l0,0v0.1l0,0l0,0l0,0l0,0l0,0v0.1l0,0l0,0l0,0v0.1l0,0v0.1l0,0v0.1l0,0v0.1l0,0v0.1l0,0v0.1l0,0v0.1l0,0v0.1l0,0v0.1l0,0v0.1l0,0
		v0.1l0,0l0.1,0.2l0,0c1.9,5.1,4,10.2,6.4,15.1l15.8-7.9C136.3,299,134.1,293.1,132.3,287z M149.4,321.4L135,331.6
		c2.3,3.3,4.8,6.5,7.5,9.6l0,0l0.1,0.1l0,0l0.1,0.1l0,0l0.1,0.1l0,0l0.1,0.1l0,0l0.1,0.1l0,0l0.1,0.1l0,0v0.1l0,0l0.1,0.1l0,0
		l0.1,0.1l0,0l0.1,0.1l0,0v0.1l0,0v0.1l0,0l0.1,0.1l0,0v0.1l0,0v0.1l0,0l0,0l0,0l0,0l0,0l0,0l0,0l0,0l0,0l0,0l0,0l0,0l0,0l0,0l0,0
		l0,0l0,0l0,0l0,0l0,0l0,0l0,0l0,0l0,0l0,0l0,0l0,0l0,0l0,0l0,0l0,0l0,0l0,0l0,0l0,0l0,0l0,0l0,0l0,0l0,0l0,0l0,0l0,0l0,0l0,0l0,0
		l0.1,0.1l0,0l0,0l0,0l0.1,0.1l0,0l0.1,0.1l0,0l0.1,0.1l0,0l0.1,0.1l0,0l0.2,0.2l0,0l0.1,0.1l0,0l0.1,0.1l0,0l0.1,0.1l0,0
		c1.1,1.2,2.2,2.4,3.4,3.6l12.6-12.3c-4.5-4.6-8.6-9.5-12.4-14.8L149.4,321.4z M176.3,348.9L165.7,363c2.8,2.1,5.6,4,8.5,5.9l0,0
		h0.1l0,0l0.1,0.1l0,0h0.1l0,0h0.1l0,0h0.1l0,0l0.1,0.1l0,0h0.1l0,0h0.1l0,0h0.1l0,0h0.1l0,0l0.1,0.1l0,0h0.1l0,0h0.1l0,0h0.1l0,0
		h0.1l0,0h0.1l0,0h0.1l0,0h0.1l0,0l0,0l0,0h0.1l0,0l0,0l0,0l0,0l0,0h0.1l0,0l0,0l0,0h0.1l0,0l0,0l0,0l0,0l0,0h0.1l0,0l0,0l0,0l0,0
		l0,0l0,0h0.1l0,0h0.1l0,0l0,0l0,0h0.1l0,0l0,0l0,0h0.1l0,0h0.1l0,0l0,0l0,0l0.1,0.1l0,0l0.1,0.1l0,0h0.1l0,0l0.1,0.1l0,0l0.2,0.1
		l0,0l0.1,0.1l0,0l0.2,0.1l0,0c0.8,0.5,1.6,0.9,2.4,1.4l0,0l0.4,0.2l0,0l0.1,0.1l0,0h0.1l0,0l0,0l0,0h0.1l0,0h0.1l0,0l0,0l0,0h0.1
		l0,0h0.1l0,0l0,0l0,0h0.1l0,0l0,0l0,0h0.1l0,0l0,0h0.1l0,0l0,0l0,0l0,0l0,0h0.1l0,0l0,0l0,0h0.1l0,0h0.1l0,0h0.1l0,0h0.1l0,0
		l0.1,0.1l0,0h0.1l0,0h0.1l0,0h0.1l0,0h0.1l0,0l0.1,0.1l0,0l0.1,0.1l0,0l0.9,0.5l8.2-15.6c-5.7-3-11.1-6.4-16.3-10.3L176.3,348.9z
		 M210.2,366.8l-5.7,16.7l0,0h0.1l0,0h0.1l0,0h0.1l0,0h0.1l0,0h0.1l0,0h0.1l0,0h0.1l0,0h0.1l0,0h0.1l0,0h0.1l0,0h0.1l0,0h0.1l0,0
		h0.1l0,0h0.1l0,0h0.1l0,0h0.1l0,0h0.1l0,0h0.2l0,0l0.2,0.1l0,0l0.2,0.1l0,0l0.2,0.1l0,0l0.2,0.1l0,0l0.3,0.1l0,0l1,0.3l0,0l0.6,0.2
		l0,0h0.2l0,0h0.1l0,0h0.2l0,0h0.2l0,0h0.2l0,0h0.1l0,0h0.2l0,0h0.2l0,0h0.1l0,0h0.1l0,0h0.1l0,0h0.2l0,0h0.2l0,0h0.1l0,0h0.1l0,0
		h0.1l0,0h0.2l0,0h0.1l0,0h0.1l0,0h0.1l0,0h0.2l0,0h0.2l0,0h0.1l0,0h0.1l0,0h0.1l0,0h0.1l0,0h0.1l0,0h0.1l0,0h0.1l0,0h0.1l0,0h0.1
		l0,0h0.1l0,0h0.1l0,0h0.1l0,0h0.1l0,0h0.1l0,0h0.1l0,0h0.1l0,0h0.1l0,0h0.1l0,0h0.1l0,0h0.1l0,0h0.1l0,0h0.1l0,0h0.1l0,0h0.1l0,0
		h0.1l0,0h0.1h0.6h0.1l0,0h0.1l0,0h0.1l0,0h0.1l0,0h0.1l0,0h0.1l0,0h0.1l0,0h0.1l0,0l0,0l0,0h0.1l0,0h0.1l0,0h0.1l0,0h0.1l0,0l0,0
		l0,0h0.1l0,0l0,0l0,0h0.1l0,0l0,0l0,0l0,0l0,0h0.1l0,0l0,0l0,0h0.1l0,0l0,0h0.1l0,0l0,0l0,0h0.1l0,0l0,0h0.1l0,0l0,0h0.1l0,0l0,0
		l0,0h0.1l0,0l0,0l0,0h0.1l0,0l0,0h0.1l0,0l0,0h0.1l0,0l0,0l0,0h0.1l0,0l0,0l0,0h0.1l0,0h0.1l0,0l0,0l0,0h0.1l0,0l0,0l0,0h0.1l0,0
		l0,0l0,0h0.1l0,0h0.1l0,0l0,0l0,0h0.1l0,0l0,0l0,0h0.1l0,0h0.1l0,0h0.1l0,0l0,0l0,0h0.1l0,0l0,0l0,0h0.1l0,0h0.1l0,0h0.1l0,0h0.1
		l0,0h0.1l0,0h0.2l0,0h0.2l0,0l0.3,0.1l0,0h0.2l0,0h0.2l0,0l1.4,0.3l0,0h0.2l0,0l0.3,0.1l0,0h0.2l0,0l0.4,0.1l0,0l0.8,0.1l0,0
		l0.9,0.2l0,0l0.8,0.1l0,0l0.4,0.1l0,0l0.5,0.1l3-17.4c-6.3-1.1-12.6-2.7-18.6-4.8L210.2,366.8z M267.3,372.1
		c-5.7,0.8-11.5,1.2-17.3,1.2c-0.7,0-1.3,0-2,0l-0.3,17.6h1.7h7.1h0.1h0.1h0.1h0.1h0.1l0,0h0.1h0.1h0.1h0.1h0.1l0,0h0.1h0.1h0.1h0.1
		h0.1l0,0h0.1h0.1h0.2l0,0h0.2l0,0h0.6l0,0c3.4-0.2,6.8-0.6,10.1-1l-2.4-17.5L267.3,372.1z M304,360.9c-5.8,2.8-11.8,5.2-17.9,7.1
		l5.1,16.9c2.3-0.7,4.6-1.5,6.9-2.3l0,0l0.2-0.1l0,0l0.2-0.1l0,0l0.2-0.1l0,0h0.1l0,0l0.2-0.1l0,0h0.1l0,0h0.1l0,0h0.1l0,0l0.1-0.1
		l0,0h0.1l0,0h0.1l0,0h0.1l0,0h0.1l0,0h0.1l0,0h0.1l0,0h0.1l0,0h0.1l0,0h0.1l0,0h0.1l0,0h0.1l0,0h0.1l0,0h0.1l0,0h0.1l0,0h0.1l0,0
		h0.1l0,0h0.1l0,0h0.1l0,0h0.1l0,0h0.1l0,0h0.1l0,0h0.1l0,0h0.1l0,0h0.1l0,0h0.1l0,0h0.1l0,0h0.1l0,0h0.1l0,0h0.1l0,0h0.1l0,0h0.1
		l0,0h0.1l0,0h0.1l0,0h0.1l0,0h0.1l0,0h0.1l0,0h0.1l0,0h0.1l0,0h0.1l0,0h0.1l0,0h0.1l0,0h0.1l0,0h0.1l0,0h0.1l0,0h0.1l0,0h0.1l0,0
		h0.1l0,0h0.1l0,0h0.1l0,0h0.1l0,0h0.1l0,0h0.1l0,0h0.1l0,0h0.1l0,0h0.1l0,0h0.1l0,0h0.1l0,0h0.1l0,0h0.1l0,0h0.1l0,0h0.1l0,0h0.1
		l0,0h0.1l0,0h0.1l0,0h0.1l0,0h0.1l0,0h0.1l0,0h0.1l0,0l0.1-0.1l0,0h0.1l0,0h0.1l0,0h0.1l0,0l0.1-0.1l0,0h0.1l0,0h0.1l0,0l1-0.6l0,0
		l0.1-0.1l0,0h0.1l0,0h0.1l0,0h0.1l0,0l0.1-0.1l0,0h0.1l0,0h0.1l0,0h0.1l0,0l0.2-0.1l0,0h0.1l0,0h0.1l0,0h0.1l0,0l0.1-0.1l0,0
		l0.2-0.1l0,0h0.1l0,0l0.3-0.1l0,0l0.2-0.1l0,0l0.2-0.1l0,0c1.4-0.6,2.7-1.2,4-1.9L304,360.9L304,360.9z M335.5,339
		c-4.6,4.5-9.6,8.5-14.9,12.2l10.1,14.5c5.7-4,11.2-8.4,16.2-13.2l0,0l0.1-0.1l0,0l0,0l0,0l0.1-0.1l0,0l0.1-0.1l0,0l0,0l0,0l0,0l0,0
		l0,0l0,0l0,0l0,0l0,0l0,0l0,0l0,0l0,0l0,0l0,0L335.5,339L335.5,339z M358.8,308.4c-3,5.7-6.5,11.1-10.4,16.2l14,10.7
		c4.4-5.9,8.4-12,11.9-18.5L358.8,308.4L358.8,308.4z M371.4,272.2c-1.1,6.3-2.8,12.5-4.9,18.6l16.6,5.8l0,0v-0.1l0,0v-0.1l0,0v-0.1
		l0,0v-0.1l0,0v-0.1l0,0V296l0,0v-0.1l0,0v-0.1l0,0l0,0l0,0v-0.1l0,0l0,0l0,0v-0.1l0,0l0,0l0,0l0,0l0,0l0,0l0,0l0,0l0,0v-0.1l0,0
		l0,0v-0.1l0,0l0,0l0,0v-0.1l0,0l0,0l0,0v-0.1l0,0v-0.1l0,0V295l0,0l0,0l0,0v-0.1l0,0v-0.1l0,0l0.6-0.3l0,0l0,0l0,0v-0.1l0,0v-0.1
		l0,0v-0.1l0,0v-0.1l0,0l0,0l0,0V294l0,0v-0.1l0,0v-0.1l0,0v-0.1l0,0l0,0l0,0v-0.1l0,0v-0.1l0,0v-0.1l0,0l0,0l0,0v-0.1l0,0l0,0l0,0
		v-0.1l0,0v-0.1l0,0l0,0l0,0V293l0,0l0,0l0,0v-0.1l0,0v-0.1l0,0v-0.1l0,0v-0.1l0,0v-0.1l0,0v-0.1l0,0v-0.1l0,0v-0.1l0,0v-0.1l0,0
		V292l0,0v-0.1l0,0l0,0l0,0v-0.1l0,0l0,0l0,0v-0.1l0,0l0,0v-0.1l0,0l0,0v-0.1l0,0l0,0l0,0v-0.1l0,0l0,0l0,0v-0.1l0,0l0,0V290l0,0
		l0,0v-0.1l0,0l0,0l0,0v-0.1l0,0l0,0v-0.1l0,0l0,0l0,0v-0.1l0,0l0,0l0,0l0,0l0,0l0,0l0,0l0,0l0,0V289l0,0l0,0l0,0v-0.1l0,0v-0.1l0,0
		v-0.1l0,0v-0.1l0,0v-0.1l0,0v-0.1l0,0v-0.1l0,0v-0.1l0,0v-0.1l0,0V288l0,0v-0.1l0,0v0.1l0,0l0,0l0,0v-0.1l0,0v-0.1l0,0v-0.1l0,0
		v-0.1l0,0v-0.1l0,0v-0.1l0,0v-0.1l0,0v-0.1l0,0v-0.1l0,0V287l0,0v-0.1l0,0v-0.1l0,0v0.2l0,0v-0.1l0,0v-0.1l0,0v-0.1l0,0v-0.1l0,0
		v-0.1l0,0v-0.1l0,0v-0.1l0,0v-0.1l0,0v-0.1l0,0V286l0,0v-0.1l0,0l1.7-1l0,0v-0.2l0,0v0.3l0,0v-0.1l0,0v-0.1l0,0v-0.2l0,0v-0.2l0,0
		v-0.1l0,0v-0.2l0,0v-0.2l0,0v0.1l0,0l0,0l0,0v-0.1l0,0v-0.2l0,0v-0.2l0,0v-0.1l0,0v-0.1l0,0v-0.1l0,0V283l0,0v-0.1l0,0v0.1l0,0
		v-0.1l0,0v-0.1l0,0v-0.1l0,0v-0.2l0,0v-0.1l0,0v-0.1l0,0v-0.1l0,0v-0.1l0,0V282l0,0v-0.1l0,0v0.1l0,0l0,0l0,0v-0.1l0,0v-0.1l0,0
		v-0.1l0,0v-0.1l0,0v-0.1v-0.3v-0.1l0,0V281l0,0v-0.1l0,0v0.1l0,0l0,0l0,0v-0.1l0,0l0,0v-0.1l0,0l0,0l0,0v-0.1l0,0l0,0l0,0v-0.1l0,0
		v-0.1l0,0l0,0l0,0v-0.1l0,0l0,0l0,0v-0.1l0,0v-0.2l0,0c0.3-1.5,0.6-3,0.9-4.5l-17.3-3.1L371.4,272.2z M389.8,231.4l-17.5,2.3
		c0.7,5.4,1.1,10.8,1.1,16.3c0,1,0,2,0,3l17.6,0.4c0-0.3,0-0.6,0-0.8V250l0,0v-2.7l0,0v-3.7l0,0v-2.7l0,0v-2.2l0,0V238v-0.1v-0.1
		l0,0v-0.1l0,0v-0.1v-0.2l0,0v-0.1l0,0v-0.1l0,0v-0.1v-0.2l0,0c-0.2-1.8-0.4-3.6-0.6-5.5L389.8,231.4z M377.3,189.3l-15.9,7.6
		c2.8,5.8,5.1,11.8,6.9,18l16.9-5C383.1,202.8,380.5,195.9,377.3,189.3z M352.5,153.2l-12.8,12.1c4.4,4.7,8.5,9.7,12.1,15l14.5-10
		c-0.8-1.1-1.6-2.3-2.4-3.4l0,0v-0.1l0,0v-0.1l0,0v-0.1l0,0v-0.1l0,0v-0.1l0,0v-0.1l0,0v-0.1l0,0v-0.1l0,0l-0.1-0.1l0,0l0,0l0,0
		v-0.1l0,0l0,0l0,0l0,0l0,0l0,0l0,0l0,0l0,0l0,0l0,0l0,0l0,0l0,0v-0.1l0,0l0,0l0,0v-0.1l0,0l-0.1-0.1l0,0l0,0l0,0l-0.1-0.1l0,0
		c-3.2-4.2-6.6-8.3-10.2-12.1L352.5,153.2z M317.7,126.3l-8.5,15.5c5.6,3.1,11,6.6,16.1,10.5l10.8-14c-3.9-3-7.9-5.8-12-8.3l0,0H324
		l0,0h-0.1l0,0l-0.1-0.1l0,0h-0.1l0,0h-0.1l0,0h-0.1l0,0h-0.1l0,0h-0.1l0,0h-0.1l0,0h-0.1l0,0l-0.1-0.1l0,0h-0.1l0,0l0,0l0,0h-0.1
		l0,0l0,0l0,0l0,0l0,0l-0.1-0.1l0,0l0,0h-0.1l0,0v-0.1l0,0h-0.1l0,0l-0.1-0.1l0,0h-0.1l0,0l-0.1-0.1l0,0
		C320.7,128,319.2,127.2,317.7,126.3L317.7,126.3z M276.4,111.5l-3.3,17.3c6.3,1.2,12.5,2.9,18.6,5.1l5.9-16.6
		c-3.8-1.4-7.8-2.6-11.7-3.6l0,0h-0.2l0,0h-0.1l0,0h-0.1l0,0h-0.1l0,0h-0.1l0,0l0,0l0,0h-0.1l0,0l0,0l0,0h-0.1l0,0l-0.1-0.1l0,0l0,0
		l0,0h-0.1l0,0l0,0l0,0h-0.1l0,0l0,0h-0.1l0,0l0,0l0,0h-0.1l0,0l0,0l0,0H284l0,0h-0.1l0,0l0,0l0,0h-0.1l0,0h-0.1l0,0h-0.1l0,0h-0.1
		l0,0h-0.1l0,0h-0.1l0,0h-0.1l0,0h-0.1l0,0H283l0,0h-0.1l0,0h-0.1l0,0h0.2l0,0h-0.1l0,0h-0.1l0,0h-0.1l0,0h-0.1l0,0h-0.1l0,0h-0.1
		l0,0h-0.1l0,0h-0.1l0,0l-0.4-0.7l0,0h-0.1l0,0h-0.1l0,0h-0.1l0,0h-0.1l0,0h-0.1l0,0l-0.2-0.1l0,0H281l0,0h-0.1l0,0h-0.1l0,0h-0.1
		l0,0h0.3l0,0l0,0l0,0h-0.1l0,0h-0.1l0,0h-0.1l0,0h-0.1l0,0h-0.1l0,0h-0.1l0,0h-0.1l0,0h-0.1l0,0h-0.1l0,0H280l0,0h-0.1l0,0h-0.1
		l0,0h0.2l0,0h-0.1l0,0h-0.1l0,0h-0.1h-0.3h-0.1l0,0h-0.1l0,0h-0.1l0,0H279l0,0h-0.1l-0.1-0.5l0,0l0,0h0.2l0,0l0,0l0,0l0,0l0,0h-0.1
		l0,0l0,0l0,0h-0.1l0,0l0,0h-0.1l0,0l0,0l0,0h-0.1l0,0l0,0l0,0h-0.1l0,0l-0.2-0.2l0,0L276.4,111.5L276.4,111.5z M250,109.1v17.6
		c1.3,0,2.6,0,4,0.1l0.6-17.6H254c-1,0-1.9,0-2.9-0.1L250,109.1L250,109.1L250,109.1z"/>
</g>
</svg>
