<?xml version="1.0" encoding="utf-8"?>
<!-- Generator: Adobe Illustrator 23.0.5, SVG Export Plug-In . SVG Version: 6.00 Build 0)  -->
<svg version="1.1" id="Layer_1" xmlns="http://www.w3.org/2000/svg" xmlns:xlink="http://www.w3.org/1999/xlink" x="0px" y="0px"
	 viewBox="0 0 20 20" style="enable-background:new 0 0 20 20;" xml:space="preserve">
<style type="text/css">
	.st0{fill-rule:evenodd;clip-rule:evenodd;fill:#0072C6;}
</style>
<path class="st0" d="M10,20c5.5,0,10-4.5,10-10c0-5.5-4.5-10-10-10c-5.5,0-10,4.5-10,10C0.1,15.5,4.5,20,10,20z M6.3,3.8
	C5.6,3.8,5,4.4,5,5s0.6,1.2,1.2,1.2h1.2c0.9,0,1.7,0.5,2.2,1.2H6.3C5.6,7.5,5,8.1,5,8.8C5,9.5,5.6,10,6.3,10h3.4
	c-0.4,0.7-1.2,1.2-2.2,1.2H6.3c-0.5,0-1,0.3-1.2,0.8s-0.1,1,0.3,1.4l3.7,3.7c0.5,0.5,1.3,0.5,1.8,0c0.5-0.5,0.5-1.3,0-1.8l-1.8-1.8
	c1.6-0.5,2.9-1.8,3.3-3.5h1.4c0.7,0,1.2-0.6,1.2-1.2c0-0.7-0.6-1.2-1.2-1.2h-1.4c-0.1-0.4-0.3-0.9-0.5-1.2h1.9C14.5,6.3,15,5.7,15,5
	s-0.6-1.2-1.2-1.2H6.3z"/>
</svg>
