<?xml version="1.0" encoding="utf-8"?>
<!-- Generator: Adobe Illustrator 23.0.5, SVG Export Plug-In . SVG Version: 6.00 Build 0)  -->
<svg version="1.1" id="Layer_1" xmlns="http://www.w3.org/2000/svg" xmlns:xlink="http://www.w3.org/1999/xlink" x="0px" y="0px"
	 viewBox="0 0 100 100" style="enable-background:new 0 0 100 100;" xml:space="preserve">
<style type="text/css">
	.st0{fill:#FFFFFF;}
	.st1{fill:#FF614F;}
</style>
<circle class="st0" cx="50" cy="50" r="50"/>
<title></title>
<g>
	<path class="st1" d="M62.5,35.3c-0.8,0.8-0.8,2.2,0,3l0,0l9.7,9.7H22.6c-1.2,0-2.1,0.9-2.1,2.1c0,1.2,0.9,2.1,2.1,2.1h49.5
		l-9.6,9.6c-0.8,0.8-0.8,2.1,0,3c0.8,0.8,2.1,0.8,3,0l13.4-13.4c0.7-0.7,0.8-1.9,0.1-2.6c0,0,0,0-0.1-0.1L65.5,35.3
		C64.7,34.4,63.4,34.4,62.5,35.3L62.5,35.3z"/>
</g>
</svg>
