<?xml version="1.0" encoding="utf-8"?>
<!-- Generator: Adobe Illustrator 23.0.5, SVG Export Plug-In . SVG Version: 6.00 Build 0)  -->
<svg version="1.1" id="Layer_1" xmlns="http://www.w3.org/2000/svg" xmlns:xlink="http://www.w3.org/1999/xlink" x="0px" y="0px"
	 viewBox="0 0 20 19.2" style="enable-background:new 0 0 20 19.2;" xml:space="preserve">
<style type="text/css">
	.st0{fill:#F3F6F9;stroke:#FFC107;stroke-miterlimit:10;}
</style>
<path class="st0" d="M19.4,7.3c-0.1-0.4-0.5-0.7-0.9-0.7l-5.4-0.5L11,1.1c-0.2-0.3-0.6-0.6-0.9-0.6c-0.4,0-0.8,0.3-0.9,0.6L6.9,6.2
	L1.5,6.7c-0.4,0-0.8,0.3-0.9,0.7c-0.1,0.4,0,0.8,0.3,1L5.1,12l-1.2,5.4c-0.1,0.4,0.1,0.8,0.4,1c0.2,0.1,0.4,0.2,0.6,0.2
	s0.4-0.1,0.5-0.2l4.7-2.8l4.7,2.8c0.4,0.2,0.8,0.2,1.1-0.1c0.3-0.3,0.5-0.7,0.4-1L15,11.9l4.2-3.6C19.5,8.2,19.6,7.7,19.4,7.3z"/>
</svg>
