<?xml version="1.0" encoding="utf-8"?>
<!-- Generator: Adobe Illustrator 23.0.5, SVG Export Plug-In . SVG Version: 6.00 Build 0)  -->
<svg version="1.1" id="Layer_1" xmlns="http://www.w3.org/2000/svg" xmlns:xlink="http://www.w3.org/1999/xlink" x="0px" y="0px"
	 viewBox="0 0 20 19.2" style="enable-background:new 0 0 20 19.2;" xml:space="preserve">
<style type="text/css">
	.st0{fill:#FFC107;}
</style>
<path class="st0" d="M19.9,7.2c-0.1-0.4-0.5-0.7-0.9-0.7L13.3,6L11,0.6C10.8,0.3,10.4,0,10,0C9.6,0,9.2,0.3,9,0.6L6.7,6L1,6.5
	c-0.4,0-0.8,0.3-0.9,0.7s0,0.8,0.3,1.1l4.4,3.8l-1.3,5.7c-0.1,0.4,0.1,0.8,0.4,1.1c0.2,0.1,0.4,0.2,0.6,0.2c0.2,0,0.4-0.1,0.5-0.2
	l5-3l5,3c0.4,0.2,0.8,0.2,1.2-0.1c0.3-0.3,0.5-0.7,0.4-1.1l-1.3-5.7l4.4-3.8C20,8.1,20.1,7.6,19.9,7.2z"/>
</svg>
