<?xml version="1.0" encoding="utf-8"?>
<!-- Generator: Adobe Illustrator 23.0.5, SVG Export Plug-In . SVG Version: 6.00 Build 0)  -->
<svg version="1.1" id="Tick" xmlns="http://www.w3.org/2000/svg" xmlns:xlink="http://www.w3.org/1999/xlink" x="0px" y="0px"
	 viewBox="0 0 28 28" style="enable-background:new 0 0 28 28;" xml:space="preserve">
<style type="text/css">
	.st0{fill:#41AD49;}
</style>
<g id="Group_348">
	<g id="Group_347">
		<g id="Group_346">
			<path id="Path_714" class="st0" d="M14,28C6.3,28,0,21.7,0,14S6.3,0,14,0s14,6.3,14,14C28,21.7,21.7,28,14,28z M14,2.5
				C7.6,2.5,2.5,7.6,2.5,14S7.6,25.5,14,25.5S25.5,20.4,25.5,14l0,0C25.5,7.6,20.4,2.5,14,2.5L14,2.5z"/>
		</g>
	</g>
</g>
<g id="Group_349" transform="translate(3.841 6.989)">
	<path id="Path_715" class="st0" d="M16.3,0.3L6.7,9.9L3.2,6.3L0.3,9.2l6.4,6.4l0.8-0.8h0L19.1,3.2L16.3,0.3z"/>
</g>
</svg>
