<?xml version="1.0" encoding="utf-8"?>
<!-- Generator: Adobe Illustrator 23.0.5, SVG Export Plug-In . SVG Version: 6.00 Build 0)  -->
<svg version="1.1" id="Layer_1" xmlns="http://www.w3.org/2000/svg" xmlns:xlink="http://www.w3.org/1999/xlink" x="0px" y="0px"
	 viewBox="0 0 20 20" style="enable-background:new 0 0 20 20;" xml:space="preserve">
<style type="text/css">
	.st0{fill:#707070;}
</style>
<g>
	<g>
		<g>
			<path class="st0" d="M20,10c0-5.5-4.5-10-10-10S0,4.5,0,10s4.5,10,10,10S20,15.5,20,10z M18.3,10c0,4.6-3.7,8.3-8.3,8.3
				S1.7,14.6,1.7,10S5.4,1.7,10,1.7S18.3,5.4,18.3,10z"/>
			<path class="st0" d="M14.8,12.3c0.3-0.3,0.3-0.9,0-1.2l-4.2-4.2c-0.3-0.3-0.9-0.3-1.2,0l-4.2,4.2c-0.3,0.3-0.3,0.9,0,1.2
				s0.9,0.3,1.2,0L10,8.7l3.6,3.6C13.9,12.6,14.4,12.6,14.8,12.3z"/>
		</g>
	</g>
</g>
</svg>
