<?xml version="1.0" encoding="utf-8"?>
<!-- Generator: Adobe Illustrator 23.0.5, SVG Export Plug-In . SVG Version: 6.00 Build 0)  -->
<svg version="1.1" id="Layer_1" xmlns="http://www.w3.org/2000/svg" xmlns:xlink="http://www.w3.org/1999/xlink" x="0px" y="0px"
	 viewBox="0 0 117 117" style="enable-background:new 0 0 117 117;" xml:space="preserve">
<style type="text/css">
	.st0{fill:#17AB13;}
</style>
<title></title>
<desc></desc>
<g id="correct">
	<path id="Shape" class="st0" d="M34.5,55.1c-1.6-1.6-4.2-1.6-5.8,0c-1.6,1.6-1.6,4.2,0,5.8l18.9,18.9c0.8,0.8,1.8,1.2,2.9,1.2
		c0.1,0,0.1,0,0.2,0c1.1-0.1,2.2-0.6,3-1.5L101,22.8c1.4-1.7,1.2-4.3-0.5-5.8c-1.7-1.4-4.3-1.2-5.8,0.5L50.2,70.8L34.5,55.1z"/>
	<path class="st0" d="M89.1,9.3c-23-14.4-52.5-11-71.7,8.2C-5.2,40.1-5.2,77,17.4,99.6c11.3,11.3,26.2,17,41,17s29.7-5.7,41-17
		c19.3-19.3,22.6-48.9,8.1-71.9c-1.2-1.9-3.7-2.5-5.6-1.3c-1.9,1.2-2.5,3.7-1.3,5.6c12.5,19.8,9.6,45.2-7,61.8
		c-19.4,19.4-51.1,19.4-70.5,0s-19.4-51.1,0-70.5C39.7,6.8,65,3.9,84.8,16.2c1.9,1.2,4.4,0.6,5.6-1.3C91.6,13,91,10.5,89.1,9.3z"/>
</g>
</svg>
