<?xml version="1.0" encoding="utf-8"?>
<!-- Generator: Adobe Illustrator 23.0.5, SVG Export Plug-In . SVG Version: 6.00 Build 0)  -->
<svg version="1.1" id="Layer_1" xmlns="http://www.w3.org/2000/svg" xmlns:xlink="http://www.w3.org/1999/xlink" x="0px" y="0px"
	 viewBox="0 0 20 20" style="enable-background:new 0 0 20 20;" xml:space="preserve">
<style type="text/css">
	.st0{fill:#FFFFFF;}
</style>
<path class="st0" d="M1,4c0-1.1,0.9-2,2-2h14c1.1,0,2,0.9,2,2v14c0,1.1-0.9,2-2,2H3c-1.1,0-2-0.9-2-2V4z M3,6v12h14V6H3z M5,0h2v2H5
	V0z M13,0h2v2h-2V0z M5,9h2v2H5V9z M5,13h2v2H5V13z M9,9h2v2H9V9z M9,13h2v2H9V13z M13,9h2v2h-2V9z M13,13h2v2h-2V13z"/>
</svg>
