<?xml version="1.0" encoding="utf-8"?>
<!-- Generator: Adobe Illustrator 23.0.5, SVG Export Plug-In . SVG Version: 6.00 Build 0)  -->
<svg version="1.1" id="Layer_1" xmlns="http://www.w3.org/2000/svg" xmlns:xlink="http://www.w3.org/1999/xlink" x="0px" y="0px"
	 viewBox="0 0 20 21.3" style="enable-background:new 0 0 20 21.3;" xml:space="preserve">
<style type="text/css">
	.st0{fill:#FFFFFF;}
</style>
<g>
	<polygon class="st0" points="0,10.6 0,18.7 4.4,15.1 	"/>
	<polygon class="st0" points="20,18.7 20,10.6 15.6,15.1 	"/>
	<polygon class="st0" points="1.3,6.9 0,7.9 0,8 1.3,9.2 	"/>
	<polygon class="st0" points="18.8,6.9 18.8,9.2 20,7.9 20,7.9 	"/>
	<polygon class="st0" points="0,21.1 0,21.3 20,21.3 20,21.2 10,12.9 	"/>
	<polygon class="st0" points="10,0 6.8,2.5 13.2,2.5 	"/>
	<path class="st0" d="M9.4,10.9c0.3-0.3,0.8-0.3,1.2,0l3.6,2.9l3.4-3.4V5.9V3.8h-2.8H5.3H2.5V6v4.6L5.8,14L9.4,10.9z"/>
</g>
</svg>
